<?xml version="1.0" encoding="UTF-8" standalone="no"?>
<!-- Created with Inkscape (http://www.inkscape.org/) -->

<svg
   xmlns:dc="http://purl.org/dc/elements/1.1/"
   xmlns:cc="http://creativecommons.org/ns#"
   xmlns:rdf="http://www.w3.org/1999/02/22-rdf-syntax-ns#"
   xmlns:svg="http://www.w3.org/2000/svg"
   xmlns="http://www.w3.org/2000/svg"
   xmlns:xlink="http://www.w3.org/1999/xlink"
   xmlns:sodipodi="http://sodipodi.sourceforge.net/DTD/sodipodi-0.dtd"
   xmlns:inkscape="http://www.inkscape.org/namespaces/inkscape"
   width="531.40979"
   height="377.96939"
   id="svg1307"
   sodipodi:version="0.32"
   inkscape:version="0.48.0 r9654"
   sodipodi:docname="Pig_01_Face_Cartoon_Pink_with_Santa_hat.svg"
   inkscape:export-filename="/home/ulisse/Desktop/greasemonkey/greasemonkey.png"
   inkscape:export-xdpi="90"
   inkscape:export-ydpi="90"
   inkscape:output_extension="org.inkscape.output.svg.inkscape"
   version="1.1">
  <defs
     id="defs1309">
    <linearGradient
       id="linearGradient4809"
       inkscape:collect="always">
      <stop
         id="stop4811"
         offset="0"
         style="stop-color:#d48193;stop-opacity:1" />
      <stop
         id="stop4813"
         offset="1"
         style="stop-color:#ffffff;stop-opacity:1" />
    </linearGradient>
    <linearGradient
       inkscape:collect="always"
       id="linearGradient4259">
      <stop
         style="stop-color:#d45500;stop-opacity:1"
         offset="0"
         id="stop4261" />
      <stop
         style="stop-color:#ffffff;stop-opacity:1"
         offset="1"
         id="stop4263" />
    </linearGradient>
    <linearGradient
       inkscape:collect="always"
       id="linearGradient3981">
      <stop
         style="stop-color:#d38d5f;stop-opacity:1;"
         offset="0"
         id="stop3983" />
      <stop
         style="stop-color:#d38d5f;stop-opacity:0;"
         offset="1"
         id="stop3985" />
    </linearGradient>
    <linearGradient
       id="linearGradient3921">
      <stop
         style="stop-color:#f6e1cf;stop-opacity:1;"
         offset="0"
         id="stop3923" />
      <stop
         id="stop3925"
         offset="0.5"
         style="stop-color:#e19d56;stop-opacity:1;" />
      <stop
         style="stop-color:#d45500;stop-opacity:1"
         offset="1"
         id="stop3927" />
    </linearGradient>
    <inkscape:perspective
       sodipodi:type="inkscape:persp3d"
       inkscape:vp_x="0 : 24 : 1"
       inkscape:vp_y="0 : 1000 : 0"
       inkscape:vp_z="48 : 24 : 1"
       inkscape:persp3d-origin="24 : 16 : 1"
       id="perspective52" />
    <linearGradient
       inkscape:collect="always"
       id="linearGradient3686">
      <stop
         style="stop-color:#3d280a;stop-opacity:1;"
         offset="0"
         id="stop3688" />
      <stop
         style="stop-color:#3d280a;stop-opacity:0;"
         offset="1"
         id="stop3690" />
    </linearGradient>
    <linearGradient
       inkscape:collect="always"
       id="linearGradient2305">
      <stop
         style="stop-color:#000000;stop-opacity:1;"
         offset="0"
         id="stop2307" />
      <stop
         style="stop-color:#000000;stop-opacity:0;"
         offset="1"
         id="stop2309" />
    </linearGradient>
    <linearGradient
       id="linearGradient2297"
       inkscape:collect="always">
      <stop
         id="stop2299"
         offset="0"
         style="stop-color:#a15702;stop-opacity:1" />
      <stop
         id="stop2301"
         offset="1"
         style="stop-color:#683c00;stop-opacity:1" />
    </linearGradient>
    <linearGradient
       id="linearGradient2251">
      <stop
         id="stop2253"
         offset="0"
         style="stop-color:#f6e1cf;stop-opacity:1;" />
      <stop
         style="stop-color:#e19d56;stop-opacity:1;"
         offset="0.5"
         id="stop3682" />
      <stop
         id="stop2255"
         offset="1"
         style="stop-color:#f4dcb7;stop-opacity:1" />
    </linearGradient>
    <linearGradient
       inkscape:collect="always"
       id="linearGradient2227">
      <stop
         style="stop-color:#8f5402;stop-opacity:1;"
         offset="0"
         id="stop2229" />
      <stop
         style="stop-color:#6e4001;stop-opacity:1"
         offset="1"
         id="stop2231" />
    </linearGradient>
    <linearGradient
       id="linearGradient2219">
      <stop
         style="stop-color:#ffffff;stop-opacity:1;"
         offset="0"
         id="stop2221" />
      <stop
         style="stop-color:#ffffff;stop-opacity:0.29963899;"
         offset="1"
         id="stop2223" />
    </linearGradient>
    <radialGradient
       inkscape:collect="always"
       xlink:href="#linearGradient2305"
       id="radialGradient2886"
       gradientUnits="userSpaceOnUse"
       gradientTransform="matrix(1,0,0,0.267857,0,27.63839)"
       cx="-6"
       cy="37.75"
       fx="-6"
       fy="37.75"
       r="14" />
    <linearGradient
       inkscape:collect="always"
       xlink:href="#linearGradient2227"
       id="linearGradient2888"
       gradientUnits="userSpaceOnUse"
       x1="-10.735215"
       y1="11.428152"
       x2="-9.25"
       y2="18.440943" />
    <linearGradient
       inkscape:collect="always"
       xlink:href="#linearGradient2219"
       id="linearGradient2890"
       gradientUnits="userSpaceOnUse"
       x1="-5.2680058"
       y1="20.641153"
       x2="-12.272349"
       y2="8.6855774" />
    <radialGradient
       inkscape:collect="always"
       xlink:href="#linearGradient2251"
       id="radialGradient2892"
       gradientUnits="userSpaceOnUse"
       gradientTransform="matrix(3.556041,0,0,3.556041,7.834793,-46.7895)"
       cx="-3.0652061"
       cy="18.305458"
       fx="-3.0652061"
       fy="18.305458"
       r="5.3310089" />
    <linearGradient
       inkscape:collect="always"
       xlink:href="#linearGradient2227"
       id="linearGradient2894"
       gradientUnits="userSpaceOnUse"
       x1="-10.153608"
       y1="10.91142"
       x2="-7.9586563"
       y2="18.145666" />
    <linearGradient
       inkscape:collect="always"
       xlink:href="#linearGradient2219"
       id="linearGradient2896"
       gradientUnits="userSpaceOnUse"
       x1="-5.2680058"
       y1="20.641153"
       x2="-12.272349"
       y2="8.6855774" />
    <radialGradient
       inkscape:collect="always"
       xlink:href="#linearGradient2251"
       id="radialGradient2898"
       gradientUnits="userSpaceOnUse"
       gradientTransform="matrix(2.45184,1.174729,-1.324281,2.80558,46.03865,-21.18657)"
       cx="-14.822968"
       cy="20.156464"
       fx="-14.822968"
       fy="20.156464"
       r="5.3293829" />
    <radialGradient
       inkscape:collect="always"
       xlink:href="#linearGradient2297"
       id="radialGradient2900"
       gradientUnits="userSpaceOnUse"
       gradientTransform="matrix(1.635062,0,0,1.830454,43.844459,-63.228437)"
       cx="24"
       cy="13.057613"
       fx="24"
       fy="13.057613"
       r="16.971834" />
    <linearGradient
       inkscape:collect="always"
       xlink:href="#linearGradient2219"
       id="linearGradient2902"
       gradientUnits="userSpaceOnUse"
       x1="24"
       y1="7.4000092"
       x2="24"
       y2="38.329697"
       gradientTransform="translate(59.085949,-51.077058)" />
    <radialGradient
       inkscape:collect="always"
       xlink:href="#linearGradient2251"
       id="radialGradient2904"
       gradientUnits="userSpaceOnUse"
       gradientTransform="matrix(2.783877,0,0,1.961686,16.272865,-84.710987)"
       cx="24.00001"
       cy="32.820721"
       fx="24.00001"
       fy="32.820721"
       r="14.999994" />
    <radialGradient
       inkscape:collect="always"
       xlink:href="#linearGradient3686"
       id="radialGradient2906"
       gradientUnits="userSpaceOnUse"
       gradientTransform="matrix(1.838239,0,0,0.855268,38.978329,-41.942971)"
       cx="23.987946"
       cy="30.12611"
       fx="23.987946"
       fy="30.12611"
       r="10.987951" />
    <linearGradient
       inkscape:collect="always"
       xlink:href="#linearGradient2219"
       id="linearGradient2908"
       gradientUnits="userSpaceOnUse"
       x1="29.064308"
       y1="39.4202"
       x2="12.860207"
       y2="2.4916291"
       gradientTransform="translate(59.085949,-51.077058)" />
    <inkscape:perspective
       id="perspective3885"
       inkscape:persp3d-origin="0.5 : 0.33333333 : 1"
       inkscape:vp_z="1 : 0.5 : 1"
       inkscape:vp_y="0 : 1000 : 0"
       inkscape:vp_x="0 : 0.5 : 1"
       sodipodi:type="inkscape:persp3d" />
    <inkscape:perspective
       id="perspective10"
       inkscape:persp3d-origin="372.04724 : 350.78739 : 1"
       inkscape:vp_z="744.09448 : 526.18109 : 1"
       inkscape:vp_y="0 : 1000 : 0"
       inkscape:vp_x="0 : 526.18109 : 1"
       sodipodi:type="inkscape:persp3d" />
    <radialGradient
       inkscape:collect="always"
       xlink:href="#linearGradient2251"
       id="radialGradient2887"
       gradientUnits="userSpaceOnUse"
       gradientTransform="matrix(3.556041,0,0,3.556041,7.834793,-46.7895)"
       cx="-3.0652061"
       cy="18.305458"
       fx="-3.0652061"
       fy="18.305458"
       r="5.3310089" />
    <radialGradient
       inkscape:collect="always"
       xlink:href="#linearGradient2305"
       id="radialGradient2889"
       gradientUnits="userSpaceOnUse"
       gradientTransform="matrix(1,0,0,0.267857,0,27.63839)"
       cx="-6"
       cy="37.75"
       fx="-6"
       fy="37.75"
       r="14" />
    <radialGradient
       inkscape:collect="always"
       xlink:href="#linearGradient2251"
       id="radialGradient2891"
       gradientUnits="userSpaceOnUse"
       gradientTransform="matrix(3.556041,0,0,3.556041,7.834793,-46.7895)"
       cx="-3.0652061"
       cy="18.305458"
       fx="-3.0652061"
       fy="18.305458"
       r="5.3310089" />
    <radialGradient
       inkscape:collect="always"
       xlink:href="#linearGradient2251"
       id="radialGradient2893"
       gradientUnits="userSpaceOnUse"
       gradientTransform="matrix(2.783877,0,0,1.961686,71.736717,-82.839558)"
       cx="24.00001"
       cy="32.820721"
       fx="24.00001"
       fy="32.820721"
       r="14.999994" />
    <inkscape:perspective
       id="perspective2835"
       inkscape:persp3d-origin="0.5 : 0.33333333 : 1"
       inkscape:vp_z="1 : 0.5 : 1"
       inkscape:vp_y="0 : 1000 : 0"
       inkscape:vp_x="0 : 0.5 : 1"
       sodipodi:type="inkscape:persp3d" />
    <inkscape:perspective
       id="perspective2922"
       inkscape:persp3d-origin="0.5 : 0.33333333 : 1"
       inkscape:vp_z="1 : 0.5 : 1"
       inkscape:vp_y="0 : 1000 : 0"
       inkscape:vp_x="0 : 0.5 : 1"
       sodipodi:type="inkscape:persp3d" />
    <inkscape:perspective
       id="perspective2959"
       inkscape:persp3d-origin="0.5 : 0.33333333 : 1"
       inkscape:vp_z="1 : 0.5 : 1"
       inkscape:vp_y="0 : 1000 : 0"
       inkscape:vp_x="0 : 0.5 : 1"
       sodipodi:type="inkscape:persp3d" />
    <linearGradient
       id="linearGradient2251-8">
      <stop
         id="stop2253-2"
         offset="0"
         style="stop-color:#f6e1cf;stop-opacity:1;" />
      <stop
         style="stop-color:#e19d56;stop-opacity:1;"
         offset="0.5"
         id="stop3682-4" />
      <stop
         id="stop2255-5"
         offset="1"
         style="stop-color:#f4dcb7;stop-opacity:1" />
    </linearGradient>
    <radialGradient
       inkscape:collect="always"
       xlink:href="#linearGradient2305-1"
       id="radialGradient2889-5"
       gradientUnits="userSpaceOnUse"
       gradientTransform="matrix(1,0,0,0.267857,0,27.63839)"
       cx="-6"
       cy="37.75"
       fx="-6"
       fy="37.75"
       r="14" />
    <linearGradient
       inkscape:collect="always"
       id="linearGradient2305-1">
      <stop
         style="stop-color:#000000;stop-opacity:1;"
         offset="0"
         id="stop2307-7" />
      <stop
         style="stop-color:#000000;stop-opacity:0;"
         offset="1"
         id="stop2309-1" />
    </linearGradient>
    <linearGradient
       id="linearGradient2973">
      <stop
         id="stop2975"
         offset="0"
         style="stop-color:#f6e1cf;stop-opacity:1;" />
      <stop
         style="stop-color:#e19d56;stop-opacity:1;"
         offset="0.5"
         id="stop2977" />
      <stop
         id="stop2979"
         offset="1"
         style="stop-color:#f4dcb7;stop-opacity:1" />
    </linearGradient>
    <linearGradient
       id="linearGradient2982">
      <stop
         id="stop2984"
         offset="0"
         style="stop-color:#f6e1cf;stop-opacity:1;" />
      <stop
         style="stop-color:#e19d56;stop-opacity:1;"
         offset="0.5"
         id="stop2986" />
      <stop
         id="stop2988"
         offset="1"
         style="stop-color:#f4dcb7;stop-opacity:1" />
    </linearGradient>
    <inkscape:perspective
       id="perspective3892"
       inkscape:persp3d-origin="0.5 : 0.33333333 : 1"
       inkscape:vp_z="1 : 0.5 : 1"
       inkscape:vp_y="0 : 1000 : 0"
       inkscape:vp_x="0 : 0.5 : 1"
       sodipodi:type="inkscape:persp3d" />
    <inkscape:perspective
       id="perspective3937"
       inkscape:persp3d-origin="0.5 : 0.33333333 : 1"
       inkscape:vp_z="1 : 0.5 : 1"
       inkscape:vp_y="0 : 1000 : 0"
       inkscape:vp_x="0 : 0.5 : 1"
       sodipodi:type="inkscape:persp3d" />
    <inkscape:perspective
       id="perspective3959"
       inkscape:persp3d-origin="0.5 : 0.33333333 : 1"
       inkscape:vp_z="1 : 0.5 : 1"
       inkscape:vp_y="0 : 1000 : 0"
       inkscape:vp_x="0 : 0.5 : 1"
       sodipodi:type="inkscape:persp3d" />
    <linearGradient
       inkscape:collect="always"
       xlink:href="#linearGradient3981"
       id="linearGradient3987"
       x1="864.85931"
       y1="-175.11815"
       x2="864.85931"
       y2="-80.708382"
       gradientUnits="userSpaceOnUse"
       gradientTransform="translate(-525.04655,-718.38148)" />
    <inkscape:perspective
       id="perspective3997"
       inkscape:persp3d-origin="0.5 : 0.33333333 : 1"
       inkscape:vp_z="1 : 0.5 : 1"
       inkscape:vp_y="0 : 1000 : 0"
       inkscape:vp_x="0 : 0.5 : 1"
       sodipodi:type="inkscape:persp3d" />
    <inkscape:perspective
       id="perspective4019"
       inkscape:persp3d-origin="0.5 : 0.33333333 : 1"
       inkscape:vp_z="1 : 0.5 : 1"
       inkscape:vp_y="0 : 1000 : 0"
       inkscape:vp_x="0 : 0.5 : 1"
       sodipodi:type="inkscape:persp3d" />
    <linearGradient
       inkscape:collect="always"
       id="linearGradient3981-8">
      <stop
         style="stop-color:#d38d5f;stop-opacity:1;"
         offset="0"
         id="stop3983-6" />
      <stop
         style="stop-color:#d38d5f;stop-opacity:0;"
         offset="1"
         id="stop3985-9" />
    </linearGradient>
    <linearGradient
       inkscape:collect="always"
       id="linearGradient2305-1-6">
      <stop
         style="stop-color:#000000;stop-opacity:1;"
         offset="0"
         id="stop2307-7-6" />
      <stop
         style="stop-color:#000000;stop-opacity:0;"
         offset="1"
         id="stop2309-1-2" />
    </linearGradient>
    <inkscape:perspective
       id="perspective4116"
       inkscape:persp3d-origin="0.5 : 0.33333333 : 1"
       inkscape:vp_z="1 : 0.5 : 1"
       inkscape:vp_y="0 : 1000 : 0"
       inkscape:vp_x="0 : 0.5 : 1"
       sodipodi:type="inkscape:persp3d" />
    <linearGradient
       gradientTransform="matrix(0.89703216,0,0,0.89703216,-18.452084,-51.023245)"
       inkscape:collect="always"
       xlink:href="#linearGradient3981-8-0"
       id="linearGradient3987-3-2"
       x1="864.85931"
       y1="-175.11815"
       x2="864.85931"
       y2="-80.708382"
       gradientUnits="userSpaceOnUse" />
    <linearGradient
       inkscape:collect="always"
       id="linearGradient3981-8-0">
      <stop
         style="stop-color:#d38d5f;stop-opacity:1;"
         offset="0"
         id="stop3983-6-5" />
      <stop
         style="stop-color:#d38d5f;stop-opacity:0;"
         offset="1"
         id="stop3985-9-5" />
    </linearGradient>
    <radialGradient
       inkscape:collect="always"
       xlink:href="#linearGradient2305-1-6-7"
       id="radialGradient2889-5-8-2"
       gradientUnits="userSpaceOnUse"
       gradientTransform="matrix(1,0,0,0.267857,0,27.63839)"
       cx="-6"
       cy="37.75"
       fx="-6"
       fy="37.75"
       r="14" />
    <linearGradient
       inkscape:collect="always"
       id="linearGradient2305-1-6-7">
      <stop
         style="stop-color:#000000;stop-opacity:1;"
         offset="0"
         id="stop2307-7-6-6" />
      <stop
         style="stop-color:#000000;stop-opacity:0;"
         offset="1"
         id="stop2309-1-2-7" />
    </linearGradient>
    <inkscape:perspective
       id="perspective4215"
       inkscape:persp3d-origin="0.5 : 0.33333333 : 1"
       inkscape:vp_z="1 : 0.5 : 1"
       inkscape:vp_y="0 : 1000 : 0"
       inkscape:vp_x="0 : 0.5 : 1"
       sodipodi:type="inkscape:persp3d" />
    <inkscape:perspective
       id="perspective4245"
       inkscape:persp3d-origin="0.5 : 0.33333333 : 1"
       inkscape:vp_z="1 : 0.5 : 1"
       inkscape:vp_y="0 : 1000 : 0"
       inkscape:vp_x="0 : 0.5 : 1"
       sodipodi:type="inkscape:persp3d" />
    <linearGradient
       inkscape:collect="always"
       xlink:href="#linearGradient4259"
       id="linearGradient4265"
       x1="-12.233939"
       y1="10"
       x2="-4.5"
       y2="19.5"
       gradientUnits="userSpaceOnUse" />
    <inkscape:perspective
       id="perspective4275"
       inkscape:persp3d-origin="0.5 : 0.33333333 : 1"
       inkscape:vp_z="1 : 0.5 : 1"
       inkscape:vp_y="0 : 1000 : 0"
       inkscape:vp_x="0 : 0.5 : 1"
       sodipodi:type="inkscape:persp3d" />
    <linearGradient
       inkscape:collect="always"
       xlink:href="#linearGradient4259-6"
       id="linearGradient4265-4"
       x1="-14"
       y1="10"
       x2="-6.8385887"
       y2="19.5"
       gradientUnits="userSpaceOnUse" />
    <linearGradient
       inkscape:collect="always"
       id="linearGradient4259-6">
      <stop
         style="stop-color:#d45500;stop-opacity:1"
         offset="0"
         id="stop4261-8" />
      <stop
         style="stop-color:#ffffff;stop-opacity:1"
         offset="1"
         id="stop4263-9" />
    </linearGradient>
    <linearGradient
       y2="19.5"
       x2="-16.712473"
       y1="10"
       x1="-6.1055098"
       gradientUnits="userSpaceOnUse"
       id="linearGradient4284"
       xlink:href="#linearGradient4259-6"
       inkscape:collect="always" />
    <radialGradient
       inkscape:collect="always"
       xlink:href="#linearGradient2305-1-6"
       id="radialGradient4355"
       gradientUnits="userSpaceOnUse"
       gradientTransform="matrix(1,0,0,0.267857,0,27.63839)"
       cx="-6"
       cy="37.75"
       fx="-6"
       fy="37.75"
       r="14" />
    <linearGradient
       inkscape:collect="always"
       xlink:href="#linearGradient3981-8"
       id="linearGradient4357"
       gradientUnits="userSpaceOnUse"
       gradientTransform="translate(404.23265,-366.23349)"
       x1="864.85931"
       y1="-175.11815"
       x2="864.85931"
       y2="-80.708382" />
    <radialGradient
       inkscape:collect="always"
       xlink:href="#linearGradient2305-1-6-7"
       id="radialGradient4382"
       gradientUnits="userSpaceOnUse"
       gradientTransform="matrix(1,0,0,0.267857,0,27.63839)"
       cx="-6"
       cy="37.75"
       fx="-6"
       fy="37.75"
       r="14" />
    <linearGradient
       inkscape:collect="always"
       xlink:href="#linearGradient4259"
       id="linearGradient4384"
       gradientUnits="userSpaceOnUse"
       x1="-12.233939"
       y1="10"
       x2="-4.5"
       y2="19.5" />
    <linearGradient
       inkscape:collect="always"
       xlink:href="#linearGradient4259-6"
       id="linearGradient4386"
       gradientUnits="userSpaceOnUse"
       x1="-6.1055098"
       y1="10"
       x2="-16.712473"
       y2="19.5" />
    <linearGradient
       inkscape:collect="always"
       xlink:href="#linearGradient3981-8-0"
       id="linearGradient4388"
       gradientUnits="userSpaceOnUse"
       gradientTransform="matrix(0.89703216,0,0,0.89703216,-18.452084,-51.023245)"
       x1="864.85931"
       y1="-175.11815"
       x2="864.85931"
       y2="-80.708382" />
    <radialGradient
       inkscape:collect="always"
       xlink:href="#linearGradient2305-1-6-7"
       id="radialGradient4943"
       gradientUnits="userSpaceOnUse"
       gradientTransform="matrix(1,0,0,0.267857,0,27.63839)"
       cx="-6"
       cy="37.75"
       fx="-6"
       fy="37.75"
       r="14" />
    <linearGradient
       inkscape:collect="always"
       xlink:href="#linearGradient4259"
       id="linearGradient4945"
       gradientUnits="userSpaceOnUse"
       x1="-12.233939"
       y1="10"
       x2="-4.5"
       y2="19.5" />
    <linearGradient
       inkscape:collect="always"
       xlink:href="#linearGradient4259-6"
       id="linearGradient4947"
       gradientUnits="userSpaceOnUse"
       x1="-6.1055098"
       y1="10"
       x2="-16.712473"
       y2="19.5" />
    <linearGradient
       inkscape:collect="always"
       xlink:href="#linearGradient3981-8-0"
       id="linearGradient4949"
       gradientUnits="userSpaceOnUse"
       gradientTransform="matrix(0.89703216,0,0,0.89703216,-18.452084,-51.023245)"
       x1="864.85931"
       y1="-175.11815"
       x2="864.85931"
       y2="-80.708382" />
    <linearGradient
       inkscape:collect="always"
       xlink:href="#linearGradient3981-8-0"
       id="linearGradient4954"
       gradientUnits="userSpaceOnUse"
       gradientTransform="matrix(0.89703216,0,0,0.89703216,13.547912,-51.023245)"
       x1="864.85931"
       y1="-175.11815"
       x2="864.85931"
       y2="-80.708382" />
    <radialGradient
       inkscape:collect="always"
       xlink:href="#linearGradient2305-1-6-7"
       id="radialGradient4999"
       gradientUnits="userSpaceOnUse"
       gradientTransform="matrix(1,0,0,0.267857,0,27.63839)"
       cx="-6"
       cy="37.75"
       fx="-6"
       fy="37.75"
       r="14" />
    <linearGradient
       inkscape:collect="always"
       xlink:href="#linearGradient4259"
       id="linearGradient5001"
       gradientUnits="userSpaceOnUse"
       x1="-12.233939"
       y1="10"
       x2="-4.5"
       y2="19.5" />
    <linearGradient
       inkscape:collect="always"
       xlink:href="#linearGradient4809"
       id="linearGradient4807"
       gradientUnits="userSpaceOnUse"
       gradientTransform="matrix(0.66425061,0,0,0.66425061,193.06657,-91.913409)"
       x1="771.07922"
       y1="-380.28613"
       x2="759.23029"
       y2="-326.46964" />
    <linearGradient
       inkscape:collect="always"
       xlink:href="#linearGradient4809-1"
       id="linearGradient4807-1"
       gradientUnits="userSpaceOnUse"
       gradientTransform="matrix(-0.66425061,0,0,0.66425061,1387.5439,-92.11231)"
       x1="778.36133"
       y1="-380.28613"
       x2="759.23029"
       y2="-326.46964" />
    <linearGradient
       id="linearGradient4809-1"
       inkscape:collect="always">
      <stop
         id="stop4811-6"
         offset="0"
         style="stop-color:#d48193;stop-opacity:1" />
      <stop
         id="stop4813-4"
         offset="1"
         style="stop-color:#ffffff;stop-opacity:1" />
    </linearGradient>
    <linearGradient
       inkscape:collect="always"
       xlink:href="#linearGradient4809-1"
       id="linearGradient5034"
       gradientUnits="userSpaceOnUse"
       gradientTransform="matrix(-0.66425061,0,0,0.66425061,1387.5439,-92.11231)"
       x1="778.36133"
       y1="-380.28613"
       x2="759.23029"
       y2="-326.46964" />
    <linearGradient
       inkscape:collect="always"
       xlink:href="#linearGradient4809-1"
       id="linearGradient5037"
       gradientUnits="userSpaceOnUse"
       gradientTransform="matrix(-0.66425061,0,0,0.66425061,1406.5469,-93.148838)"
       x1="773.50055"
       y1="-356.43994"
       x2="741.54523"
       y2="-315.02637" />
    <linearGradient
       inkscape:collect="always"
       xlink:href="#linearGradient4809"
       id="linearGradient5040"
       gradientUnits="userSpaceOnUse"
       gradientTransform="matrix(0.66425061,0,0,0.66425061,193.06657,-91.913409)"
       x1="771.07922"
       y1="-380.28613"
       x2="759.23029"
       y2="-326.46964" />
    <linearGradient
       inkscape:collect="always"
       xlink:href="#linearGradient4809"
       id="linearGradient5043"
       gradientUnits="userSpaceOnUse"
       gradientTransform="matrix(0.66425061,0,0,0.66425061,193.06657,-91.913409)"
       x1="771.07922"
       y1="-380.28613"
       x2="757.0235"
       y2="-294.10315" />
    <linearGradient
       inkscape:collect="always"
       xlink:href="#linearGradient4809-2"
       id="linearGradient5043-2"
       gradientUnits="userSpaceOnUse"
       gradientTransform="matrix(0.66425061,0,0,0.66425061,193.06657,-91.913409)"
       x1="771.07922"
       y1="-380.28613"
       x2="757.0235"
       y2="-294.10315" />
    <linearGradient
       id="linearGradient4809-2"
       inkscape:collect="always">
      <stop
         id="stop4811-3"
         offset="0"
         style="stop-color:#d48193;stop-opacity:1" />
      <stop
         id="stop4813-9"
         offset="1"
         style="stop-color:#ffffff;stop-opacity:1" />
    </linearGradient>
    <linearGradient
       y2="-294.10315"
       x2="757.0235"
       y1="-380.28613"
       x1="771.07922"
       gradientTransform="matrix(-0.66425061,0,0,0.66425061,1387.7777,-91.318721)"
       gradientUnits="userSpaceOnUse"
       id="linearGradient5107"
       xlink:href="#linearGradient4809-2"
       inkscape:collect="always" />
    <radialGradient
       inkscape:collect="always"
       xlink:href="#linearGradient2305-1-6-7"
       id="radialGradient5154"
       gradientUnits="userSpaceOnUse"
       gradientTransform="matrix(1,0,0,0.267857,0,27.63839)"
       cx="-6"
       cy="37.75"
       fx="-6"
       fy="37.75"
       r="14" />
    <linearGradient
       inkscape:collect="always"
       xlink:href="#linearGradient4809"
       id="linearGradient5156"
       gradientUnits="userSpaceOnUse"
       gradientTransform="matrix(0.66425061,0,0,0.66425061,193.06657,-91.913409)"
       x1="771.07922"
       y1="-380.28613"
       x2="757.0235"
       y2="-294.10315" />
    <linearGradient
       inkscape:collect="always"
       xlink:href="#linearGradient4809-2"
       id="linearGradient5158"
       gradientUnits="userSpaceOnUse"
       gradientTransform="matrix(-0.66425061,0,0,0.66425061,1387.7777,-91.318721)"
       x1="771.07922"
       y1="-380.28613"
       x2="757.0235"
       y2="-294.10315" />
    <radialGradient
       inkscape:collect="always"
       xlink:href="#linearGradient2305-1-6-7"
       id="radialGradient3185"
       gradientUnits="userSpaceOnUse"
       gradientTransform="matrix(1,0,0,0.267857,0,27.63839)"
       cx="-6"
       cy="37.75"
       fx="-6"
       fy="37.75"
       r="14" />
    <linearGradient
       inkscape:collect="always"
       xlink:href="#linearGradient4809"
       id="linearGradient3187"
       gradientUnits="userSpaceOnUse"
       gradientTransform="matrix(0.66425061,0,0,0.66425061,193.06657,-91.913409)"
       x1="771.07922"
       y1="-380.28613"
       x2="757.0235"
       y2="-294.10315" />
    <linearGradient
       inkscape:collect="always"
       xlink:href="#linearGradient4809-2"
       id="linearGradient3189"
       gradientUnits="userSpaceOnUse"
       gradientTransform="matrix(-0.66425061,0,0,0.66425061,1387.7777,-91.318721)"
       x1="771.07922"
       y1="-380.28613"
       x2="757.0235"
       y2="-294.10315" />
  </defs>
  <sodipodi:namedview
     id="base"
     pagecolor="#ffffff"
     bordercolor="#666"
     borderopacity="0.09019608"
     inkscape:pageopacity="0.0"
     inkscape:pageshadow="2"
     inkscape:zoom="1.0232819"
     inkscape:cx="-39.975636"
     inkscape:cy="259.27353"
     inkscape:current-layer="layer1"
     showgrid="false"
     inkscape:grid-bbox="false"
     inkscape:document-units="px"
     inkscape:grid-points="false"
     inkscape:window-width="1920"
     inkscape:window-height="1138"
     inkscape:window-x="-8"
     inkscape:window-y="-8"
     fill="#729fcf"
     showguides="true"
     inkscape:guide-bbox="true"
     inkscape:showpageshadow="false"
     showborder="true"
     inkscape:window-maximized="1"
     fit-margin-top="0"
     fit-margin-left="0"
     fit-margin-right="0"
     fit-margin-bottom="0">
    <inkscape:grid
       id="GridFromPre046Settings"
       type="xygrid"
       originx="0px"
       originy="0px"
       spacingx="0.5px"
       spacingy="0.5px"
       color="#0000ff"
       empcolor="#0000ff"
       opacity="0.2"
       empopacity="0.4"
       empspacing="2"
       visible="true"
       enabled="true"
       snapvisiblegridlinesonly="true" />
  </sodipodi:namedview>
  <metadata
     id="metadata1312">
    <rdf:RDF>
      <cc:Work
         rdf:about="">
        <dc:format>image/svg+xml</dc:format>
        <dc:type
           rdf:resource="http://purl.org/dc/dcmitype/StillImage" />
        <dc:creator>
          <cc:Agent>
            <dc:title>Ulisse Perusin</dc:title>
          </cc:Agent>
        </dc:creator>
        <dc:title></dc:title>
        <dc:language>emoticons monkey</dc:language>
        <cc:license
           rdf:resource="http://creativecommons.org/licenses/publicdomain/" />
        <dc:date>18/05/2006</dc:date>
      </cc:Work>
      <cc:License
         rdf:about="http://creativecommons.org/licenses/publicdomain/">
        <cc:permits
           rdf:resource="http://creativecommons.org/ns#Reproduction" />
        <cc:permits
           rdf:resource="http://creativecommons.org/ns#Distribution" />
        <cc:permits
           rdf:resource="http://creativecommons.org/ns#DerivativeWorks" />
      </cc:License>
    </rdf:RDF>
  </metadata>
  <g
     id="layer1"
     inkscape:label="Layer 1"
     inkscape:groupmode="layer"
     transform="translate(-433.46242,461.20048)">
    <g
       id="g3153">
      <g
         id="g5128">
        <path
           sodipodi:type="arc"
           style="opacity:0.48453608;color:#000000;fill:url(#radialGradient3185);fill-opacity:1;fill-rule:evenodd;stroke:none;stroke-width:1;marker:none;visibility:visible;display:inline;overflow:visible"
           id="path5044-1-8-7"
           sodipodi:cx="-6"
           sodipodi:cy="37.75"
           sodipodi:rx="14"
           sodipodi:ry="3.75"
           d="m 8,37.75 c 0,2.071068 -6.2680135,3.75 -14,3.75 -7.731986,0 -14,-1.678932 -14,-3.75 0,-2.071068 6.268014,-3.75 14,-3.75 7.7319865,0 14,1.678932 14,3.75 z"
           transform="matrix(11.61542,0,0,11.443319,864.68047,-558.12882)"
           inkscape:export-filename="/Users/mdespont/Desktop/recherche en cours/kong/path5090.png"
           inkscape:export-xdpi="1256.7957"
           inkscape:export-ydpi="1256.7957" />
        <path
           style="color:#000000;fill:#d45589;fill-opacity:1;fill-rule:evenodd;stroke:none;stroke-width:0.52088934;marker:none;visibility:visible;display:inline;overflow:visible"
           d="m 709.85899,-369.85951 c 6.71954,8.82465 10.60397,17.21634 11.77284,31.78707 0.88005,10.97042 5.16433,18.4047 0.55999,24.0688 -10.21706,12.56868 -5.69888,7.01548 -22.47928,17.11156 -9.23605,5.55696 -22.36073,-1.51523 -25.65198,-1.51523 -29.73515,0 -38.60684,-23.44843 -44.38427,-51.70305 -3.40822,-16.66787 -12.85037,-43.42919 -13.93802,-57.09591 11.55313,-1.14858 43.75124,9.61093 57.29147,15.36463 12.9563,5.50555 30.1097,13.15748 36.82925,21.98213 z"
           id="path5046-4-7-2-5-5"
           inkscape:connector-curvature="0"
           sodipodi:nodetypes="zssssscsz" />
        <path
           sodipodi:type="arc"
           style="fill:#d45589;fill-opacity:1;stroke:none"
           id="path4205-1"
           sodipodi:cx="735.97565"
           sodipodi:cy="590.82947"
           sodipodi:rx="141.12523"
           sodipodi:ry="141.12523"
           d="m 877.10088,590.82947 c 0,77.94131 -63.18392,141.12523 -141.12523,141.12523 -77.94131,0 -141.12523,-63.18392 -141.12523,-141.12523 0,-77.94131 63.18392,-141.12523 141.12523,-141.12523 77.94131,0 141.12523,63.18392 141.12523,141.12523 z"
           transform="matrix(0.92838002,0,0,0.80719802,106.08943,-701.38697)" />
        <path
           sodipodi:type="arc"
           style="fill:#d48193;fill-opacity:1;stroke:none"
           id="path4205"
           sodipodi:cx="735.97565"
           sodipodi:cy="590.82947"
           sodipodi:rx="141.12523"
           sodipodi:ry="141.12523"
           d="m 877.10088,590.82947 c 0,77.94131 -63.18392,141.12523 -141.12523,141.12523 -77.94131,0 -141.12523,-63.18392 -141.12523,-141.12523 0,-77.94131 63.18392,-141.12523 141.12523,-141.12523 77.94131,0 141.12523,63.18392 141.12523,141.12523 z"
           transform="matrix(0.87774115,0,0,0.7600215,143.35841,-674.00231)" />
        <path
           style="color:#000000;fill:#d48193;fill-opacity:1;fill-rule:evenodd;stroke:none;stroke-width:0.52088934;marker:none;visibility:visible;display:inline;overflow:visible"
           d="m 708.07181,-364.38294 c 6.26185,8.22356 8.74334,17.63735 9.8326,31.21561 0.82011,10.22318 5.26791,18.28943 4.61993,20.2665 -4.70105,14.34352 -2.97283,12.79401 -20.94813,15.94602 -2.91517,0.5112 -21.06531,-6.30695 -24.13239,-6.30695 -27.70976,0 -35.74949,-16.95633 -41.1334,-43.28641 -3.17606,-15.53255 -11.97508,-40.47104 -12.98864,-53.20687 10.76619,-1.07034 40.77116,8.95629 53.38911,14.31808 12.07379,5.13055 25.09908,12.83045 31.36092,21.05402 z"
           id="path5046-4-7-2-5"
           inkscape:connector-curvature="0"
           sodipodi:nodetypes="zssssscsz" />
        <path
           style="color:#000000;fill:url(#linearGradient3187);fill-opacity:1;fill-rule:evenodd;stroke:none;stroke-width:0.52088934;marker:none;visibility:visible;display:inline;overflow:visible"
           d="m 708.3984,-345.56398 c 4.15943,5.46251 5.80776,11.71562 6.5313,20.73499 0.54476,6.79076 3.99689,12.05848 2.82448,12.79018 -5.87118,3.66421 -7.65495,4.83375 -14.95314,11.0197 -1.49971,1.27115 -12.71,-3.94508 -14.74731,-3.94508 -18.40622,0 -23.74662,-11.26326 -27.32288,-28.75303 -2.10971,-10.3175 -7.95446,-26.88291 -8.62772,-35.34269 7.15145,-0.71098 27.08227,5.94922 35.46375,9.51079 8.02002,3.40797 16.67208,8.52263 20.83152,13.98514 z"
           id="path5046-4-7-2-5-0"
           inkscape:connector-curvature="0"
           sodipodi:nodetypes="zssssscsz" />
        <g
           transform="matrix(7.5635306,0,0,7.5635306,606.11685,-434.22649)"
           id="g5056-2-7-6"
           inkscape:export-filename="/Users/mdespont/Desktop/recherche en cours/kong/path5090.png"
           inkscape:export-xdpi="1256.7957"
           inkscape:export-ydpi="1256.7957">
          <g
             id="g5058-1-5-0"
             transform="matrix(0.41061481,0,0,0.41061481,37.955384,10.947249)">
            <path
               transform="matrix(0.17771062,0,0,0.17771062,-42.905099,-80.331303)"
               d="m 177.14286,592.36218 c 0,31.55913 -25.58373,57.14286 -57.14286,57.14286 -31.559128,0 -57.142857,-25.58373 -57.142857,-57.14286 0,-31.55913 25.583729,-57.14285 57.142857,-57.14285 31.55913,0 57.14286,25.58372 57.14286,57.14285 z"
               sodipodi:ry="57.142857"
               sodipodi:rx="57.142857"
               sodipodi:cy="592.36218"
               sodipodi:cx="120"
               id="path5060-6-7-9"
               style="fill:#ffffff;fill-opacity:1;stroke:none"
               sodipodi:type="arc" />
            <path
               sodipodi:type="arc"
               style="fill:#000000;fill-opacity:1;stroke:#000000;stroke-width:0.1;stroke-linejoin:miter;stroke-miterlimit:4;stroke-opacity:1;stroke-dasharray:none"
               id="path5062-8-8-5"
               sodipodi:cx="120"
               sodipodi:cy="592.36218"
               sodipodi:rx="57.142857"
               sodipodi:ry="57.142857"
               d="m 177.14286,592.36218 c 0,31.55913 -25.58373,57.14286 -57.14286,57.14286 -31.559128,0 -57.142857,-25.58373 -57.142857,-57.14286 0,-31.55913 25.583729,-57.14285 57.142857,-57.14285 31.55913,0 57.14286,25.58372 57.14286,57.14285 z"
               transform="matrix(0.11892134,0,0,0.13545904,-35.976303,-55.557543)" />
            <path
               transform="matrix(0.04452845,0,0,0.04452845,-26.133566,-5.6169532)"
               d="m 177.14286,592.36218 c 0,31.55913 -25.58373,57.14286 -57.14286,57.14286 -31.559128,0 -57.142857,-25.58373 -57.142857,-57.14286 0,-31.55913 25.583729,-57.14285 57.142857,-57.14285 31.55913,0 57.14286,25.58372 57.14286,57.14285 z"
               sodipodi:ry="57.142857"
               sodipodi:rx="57.142857"
               sodipodi:cy="592.36218"
               sodipodi:cx="120"
               id="path5064-5-2-8"
               style="fill:#ffffff;fill-opacity:1;stroke:#000000;stroke-width:0.1;stroke-linejoin:miter;stroke-miterlimit:4;stroke-opacity:1;stroke-dasharray:none"
               sodipodi:type="arc" />
          </g>
          <g
             transform="matrix(0.41061481,0,0,0.41061481,28.219551,10.947249)"
             id="g5066-7-7-9">
            <path
               sodipodi:type="arc"
               style="fill:#ffffff;fill-opacity:1;stroke:none"
               id="path5068-6-8-0"
               sodipodi:cx="120"
               sodipodi:cy="592.36218"
               sodipodi:rx="57.142857"
               sodipodi:ry="57.142857"
               d="m 177.14286,592.36218 c 0,31.55913 -25.58373,57.14286 -57.14286,57.14286 -31.559128,0 -57.142857,-25.58373 -57.142857,-57.14286 0,-31.55913 25.583729,-57.14285 57.142857,-57.14285 31.55913,0 57.14286,25.58372 57.14286,57.14285 z"
               transform="matrix(0.17771062,0,0,0.17771062,-42.905099,-80.331303)" />
            <path
               transform="matrix(0.11892134,0,0,0.13545904,-35.976303,-55.557543)"
               d="m 177.14286,592.36218 c 0,31.55913 -25.58373,57.14286 -57.14286,57.14286 -31.559128,0 -57.142857,-25.58373 -57.142857,-57.14286 0,-31.55913 25.583729,-57.14285 57.142857,-57.14285 31.55913,0 57.14286,25.58372 57.14286,57.14285 z"
               sodipodi:ry="57.142857"
               sodipodi:rx="57.142857"
               sodipodi:cy="592.36218"
               sodipodi:cx="120"
               id="path5070-1-0-0"
               style="fill:#000000;fill-opacity:1;stroke:#000000;stroke-width:0.1;stroke-linejoin:miter;stroke-miterlimit:4;stroke-opacity:1;stroke-dasharray:none"
               sodipodi:type="arc" />
            <path
               sodipodi:type="arc"
               style="fill:#ffffff;fill-opacity:1;stroke:#000000;stroke-width:0.1;stroke-linejoin:miter;stroke-miterlimit:4;stroke-opacity:1;stroke-dasharray:none"
               id="path5072-8-2-0"
               sodipodi:cx="120"
               sodipodi:cy="592.36218"
               sodipodi:rx="57.142857"
               sodipodi:ry="57.142857"
               d="m 177.14286,592.36218 c 0,31.55913 -25.58373,57.14286 -57.14286,57.14286 -31.559128,0 -57.142857,-25.58373 -57.142857,-57.14286 0,-31.55913 25.583729,-57.14285 57.142857,-57.14285 31.55913,0 57.14286,25.58372 57.14286,57.14285 z"
               transform="matrix(0.04452845,0,0,0.04452845,-26.133566,-5.6169532)" />
          </g>
        </g>
        <path
           inkscape:connector-curvature="0"
           style="fill:none;stroke:#6b350f;stroke-width:8.0539999;stroke-linecap:round;stroke-linejoin:round;stroke-miterlimit:4;stroke-opacity:1;stroke-dasharray:none"
           d="m 731.0821,-167.19026 c 45.39668,33.90984 83.88646,23.61541 120.29484,0"
           id="path5090"
           sodipodi:nodetypes="cc"
           inkscape:export-xdpi="1256.7957"
           inkscape:export-ydpi="1256.7957" />
        <path
           style="color:#000000;fill:#d45589;fill-opacity:1;fill-rule:evenodd;stroke:none;stroke-width:0.52088934;marker:none;visibility:visible;display:inline;overflow:visible"
           d="m 870.75147,-370.05841 c -6.71954,8.82465 -10.60397,17.21634 -11.77284,31.78707 -0.88005,10.97042 -5.16433,18.4047 -0.55999,24.0688 10.21706,12.56868 5.69888,7.01548 22.47928,17.11156 9.23605,5.55696 22.36073,-1.51523 25.65198,-1.51523 29.73518,0 38.60688,-23.44843 44.38428,-51.70305 3.4082,-16.66787 12.8504,-43.42919 13.938,-57.09591 -11.5531,-1.14858 -43.7512,9.61093 -57.29146,15.36463 -12.9563,5.50555 -30.1097,13.15748 -36.82925,21.98213 z"
           id="path5046-4-7-2-5-5-7"
           inkscape:connector-curvature="0"
           sodipodi:nodetypes="zssssscsz" />
        <path
           style="color:#000000;fill:#d48193;fill-opacity:1;fill-rule:evenodd;stroke:none;stroke-width:0.52088934;marker:none;visibility:visible;display:inline;overflow:visible"
           d="m 872.53865,-364.58184 c -6.26185,8.22356 -8.74334,17.63735 -9.8326,31.21561 -0.82011,10.22318 -5.26791,18.28943 -4.61993,20.2665 4.70105,14.34352 2.97283,12.79401 20.94813,15.94602 2.91517,0.5112 21.06531,-6.30695 24.13239,-6.30695 27.70974,0 35.74944,-16.95633 41.13344,-43.28641 3.176,-15.53255 11.975,-40.47104 12.9886,-53.20686 -10.7662,-1.07035 -40.7712,8.95629 -53.38911,14.31807 -12.07379,5.13055 -25.09907,12.83045 -31.36092,21.05402 z"
           id="path5046-4-7-2-5-8"
           inkscape:connector-curvature="0"
           sodipodi:nodetypes="zssssscsz" />
        <g
           id="g5086">
          <path
             style="fill:#6b350f;fill-opacity:1;fill-rule:evenodd;stroke:none;stroke-width:3.94430232;marker:none;visibility:visible;display:inline;overflow:visible;enable-background:accumulate"
             d="m 844.42093,-205.92799 c 0,19.68555 -24.80034,35.66222 -55.35807,35.66222 -30.55756,0 -55.35799,-15.97667 -55.35799,-35.66222 0,-19.68554 24.80043,-35.66223 55.35799,-35.66223 30.55773,0 55.35807,15.97669 55.35807,35.66223 z"
             id="path3201-7-0-7"
             inkscape:connector-curvature="0" />
          <path
             style="fill:#d48193;fill-opacity:1;fill-rule:evenodd;stroke:none;stroke-width:3.94430232;marker:none;visibility:visible;display:inline;overflow:visible;enable-background:accumulate"
             d="m 838.25878,-205.75352 c 0,17.56149 -22.12441,31.8143 -49.385,31.8143 -27.26043,0 -49.38492,-14.25281 -49.38492,-31.8143 0,-17.5615 22.12449,-31.81432 49.38492,-31.81432 27.26059,0 49.385,14.25282 49.385,31.81432 z"
             id="path3201-7-0-7-3"
             inkscape:connector-curvature="0" />
          <path
             transform="translate(618.98959,-406.75804)"
             d="m 160.26864,203.46198 c 0,6.20676 -5.03158,11.23835 -11.23835,11.23835 -6.20677,0 -11.23835,-5.03159 -11.23835,-11.23835 0,-6.20677 5.03158,-11.23835 11.23835,-11.23835 6.20677,0 11.23835,5.03158 11.23835,11.23835 z"
             sodipodi:ry="11.23835"
             sodipodi:rx="11.23835"
             sodipodi:cy="203.46198"
             sodipodi:cx="149.03029"
             id="path3288"
             style="fill:#d45589;fill-opacity:1;stroke:none"
             sodipodi:type="arc" />
          <path
             transform="translate(658.56813,-407.24666)"
             d="m 160.26864,203.46198 c 0,6.20676 -5.03158,11.23835 -11.23835,11.23835 -6.20677,0 -11.23835,-5.03159 -11.23835,-11.23835 0,-6.20677 5.03158,-11.23835 11.23835,-11.23835 6.20677,0 11.23835,5.03158 11.23835,11.23835 z"
             sodipodi:ry="11.23835"
             sodipodi:rx="11.23835"
             sodipodi:cy="203.46198"
             sodipodi:cx="149.03029"
             id="path3288-3"
             style="fill:#d45589;fill-opacity:1;stroke:none"
             sodipodi:type="arc" />
        </g>
        <path
           style="color:#000000;fill:url(#linearGradient3189);fill-opacity:1;fill-rule:evenodd;stroke:none;stroke-width:0.52088934;marker:none;visibility:visible;display:inline;overflow:visible"
           d="m 872.44593,-344.96929 c -4.15943,5.46251 -5.80776,11.71562 -6.5313,20.73499 -0.54476,6.79076 -3.99689,12.05848 -2.82448,12.79018 5.87118,3.66421 7.65495,4.83375 14.95314,11.0197 1.49971,1.27115 12.71,-3.94508 14.74731,-3.94508 18.40622,0 23.74662,-11.26326 27.32288,-28.75303 2.10971,-10.3175 7.95446,-26.88291 8.62772,-35.34269 -7.15145,-0.71098 -27.08227,5.94922 -35.46375,9.51079 -8.02002,3.40797 -16.67208,8.52263 -20.83152,13.98514 z"
           id="path5046-4-7-2-5-0-67"
           inkscape:connector-curvature="0"
           sodipodi:nodetypes="zssssscsz" />
      </g>
      <g
         id="g3772"
         transform="matrix(1.2547435,0.07810081,-0.06681699,0.99130309,314.5893,-757.13641)">
        <path
           style="fill:#ffffff;fill-opacity:1;stroke:#000000;stroke-width:1px;stroke-linecap:butt;stroke-linejoin:miter;stroke-opacity:1"
           d="m 4.375,241.14911 6.75,-5.125 6.375,-6.75 8.25,-3.125 3.875,-11 4.625,-2 8.375,4.5 5.875,-10 5.875,-1.75 5.875,8.875 2.5,14.625 7.25,-1.5 3.125,2.625 -4,8.5 7.375,11.25 -4.625,3.5 1.625,5 6.25,6.625 1.875,8.625 -4.625,4.125 -7.375,-4.25 1.25,10.875 -2.75,3.25 -7,-0.125 -5.25,-8.375 -1.25,11.25 -5,4.25 -5.5,0.25 -6.125,-3.625 -1.75,-7.25 -2.875,6.75 -7.875,1.625 -4.375,-2.125 -2.875,-7.625 -0.125,-9.75 -7.875,-3.125 -5.5,-1.875 -2.375,-5.875 3.375,-5.125 -0.5,-3 -2.875,-5.375 z"
           id="path3770"
           inkscape:connector-curvature="0"
           transform="translate(123.1631,269.7281)" />
        <path
           style="fill:#ffffff;fill-opacity:1;stroke:#000000;stroke-width:1px;stroke-linecap:butt;stroke-linejoin:miter;stroke-opacity:1"
           d="m 185.25,189.02411 5.5,-6.75 5.75,4.25 6.25,2.5 3.75,-7 2,-5.25 0.25,-6.5 5.25,-3.25 9.25,-13 7,-2.75 6.25,-3 6,-2 4.75,-4 5.25,-10 11.25,-3.25 4.5,-0.5 4.25,-3 7.5,4.25 4,-0.25 3.25,-8 5.5,7 7,6.75 12.5,4.75 8.25,3.75 6.75,5 8.25,6.25 6.5,-0.25 4.25,6 6.5,3.25 7.5,-5 7,-2.75 -2,-12.75 1,-2.75 7.25,3.25 4,-3.25 -5,-12.75 10,0 4.25,-2.75 -6,-7.25 -13.75,-8 -9,-18.500001 -3.75,-3.75 -21,-4 -13,-1.75 -4.75,-5.75 -2.5,-0.5 -5.75,5.5 -27.75,-8.25 -4.25,-3.5 -3.25,-7.25 -4.5,-2 -3.25,2.5 -3,10 -0.75,-0.5 -7.5,-4.25 -4,0.5 -2.5,8 -4.75,1 -13.75,-6.5 -1.75,1.5 -0.5,12 -6.5,-0.75 -4.5,2.75 0.25,3.75 -11.75,2.75 -10.75,5.75 -4.75,3.750001 -7,-2.5 -2.75,6.5 -7.75,0.5 -3.75,2.75 3,12 -4.5,1.75 -4.75,1.75 -1.75,5.75 2.25,7.25 -2.25,6.25 5.75,3.25 -1.5,10 4.75,13.25 4.5,5.25 1.25,8.25 4.75,4.25 z"
           id="path3000"
           inkscape:connector-curvature="0"
           transform="translate(123.1631,269.7281)" />
        <path
           inkscape:connector-curvature="0"
           style="fill:#ff0000;fill-opacity:1;fill-rule:evenodd;stroke:#000000;stroke-width:1px;stroke-linecap:butt;stroke-linejoin:miter;stroke-opacity:1"
           d="m 463.26164,348.64794 c -3.51049,-8.23161 -56.07142,-68.57144 -97.14285,-74.28572 -41.17488,-5.72868 -70,26.42858 -75.71429,31.42858 -5.71429,5 -27.85714,62.85714 -27.85714,62.85714 l -19.28572,65 -12.85714,29.28572 -12.14286,19.28571 -10,11.42857 -16.42857,7.14286 c 0,0 1.875,-3.48214 4.375,0.80357 2.5,4.28571 -11.875,13.57142 10.625,17.32142 22.6265,3.77109 43.21428,-4.55356 70,-19.55356 26.78572,-15 27.5,-30.89287 32.14286,-41.42858 4.64286,-10.53571 -13.57143,-0.71428 -13.57143,-0.71428 l -1.42857,-10.71429 -6.42857,-14.28571 -7.14286,-30.71429 7.14286,-7.85714 4.28571,-3.57143 -3.57143,-10.71429 50.71429,-21.42857 11.42857,-15.71428 16.42857,6.42857 5.71429,-11.42857 12.14285,5 5,-11.42857 5,-0.71429 4.28572,12.85714 30.71428,7.85715 5.71429,-7.14286 6.42857,8.57143 c -4.60456,-5.2185 24.93906,4.66018 21.42857,-3.57143 z"
           id="path3698"
           sodipodi:nodetypes="czscccccczzzzccccccccccccccccccz" />
        <path
           inkscape:connector-curvature="0"
           id="path2801"
           d="m 176.89628,566.01982 c 1.22238,-0.85619 2.22251,-2.37609 2.22251,-3.37756 0,-3.38408 2.09803,-3.99151 8.31222,-2.40656 6.94733,1.77194 8.22576,1.09395 9.42285,-4.99724 0.79306,-4.03533 0.94787,-4.17137 5.08893,-4.47176 3.49487,-0.25352 4.44407,-0.76507 5.22349,-2.8151 1.24457,-3.27345 1.21878,-8.09248 -0.0475,-8.87508 -0.55,-0.33992 -1,-1.71083 -1,-3.04647 0,-1.74567 -1.12463,-3.13839 -4,-4.95353 -4.57594,-2.88867 -4.92088,-4.30947 -1.75,-7.2084 1.66369,-1.521 4.20435,-2.22503 9.75,-2.70175 14.15256,-1.2166 21.5036,-2.25035 24.3151,-3.41935 1.5483,-0.64378 4.88375,-1.1705 7.41211,-1.1705 4.20955,0 11.11962,-1.53832 18.77279,-4.17919 1.65,-0.56937 4.81401,-1.35068 7.03114,-1.73626 4.12927,-0.71812 9.9647,-4.32835 10.88886,-6.73666 0.28448,-0.74134 1.13407,-1.34789 1.88798,-1.34789 0.75392,0 3.03618,-1.8 5.07169,-4 2.03552,-2.2 4.37562,-4 5.20024,-4 1.82613,0 9.42009,-7.566 9.42009,-9.38541 0,-0.71754 0.9,-2.1191 2,-3.11459 1.1,-0.99549 2,-2.25312 2,-2.79474 0,-0.54163 0.70023,-1.4968 1.55607,-2.1226 0.85584,-0.62581 1.91648,-3.60042 2.35698,-6.61025 0.44049,-3.00982 1.53749,-6.82241 2.43776,-8.47241 0.90028,-1.65 1.63964,-3.53594 1.64303,-4.19098 0.0115,-2.22636 2.01195,-2.441 4.76298,-0.51106 3.5261,2.47367 9.90764,4.54478 11.78442,3.82459 0.81051,-0.31102 1.45876,-1.83801 1.45876,-3.43618 0,-1.58262 0.87781,-3.6708 1.9516,-4.64257 1.34856,-1.22043 2.0438,-3.35404 2.25,-6.90498 0.26865,-4.62655 0.54761,-5.17283 2.7984,-5.48 3.18408,-0.43453 6,-2.933 6,-5.3236 0,-1.02013 0.94108,-2.63789 2.0913,-3.59501 1.15021,-0.95711 2.50697,-2.7998 3.01503,-4.09485 0.72634,-1.85148 1.43386,-2.2266 3.31102,-1.75546 4.50661,1.13109 8.69734,-0.43304 10.10034,-3.7698 1.15727,-2.75233 1.69121,-3.05195 4.93994,-2.77206 4.00447,0.34501 6.54237,-1.1429 6.54237,-3.83563 0,-0.95848 0.85592,-2.83081 1.90204,-4.16074 1.04612,-1.32993 2.05862,-3.51145 2.25,-4.84783 0.39218,-2.7386 4.30942,-4.11852 11.47274,-4.04151 2.49706,0.0269 4.61714,-0.5489 5.37245,-1.45899 1.5951,-1.92198 3.463,-1.90312 6.46718,0.0653 3.39557,2.22486 8.77883,1.51661 10.02272,-1.31864 1.10024,-2.50782 2.51287,-2.99485 2.51287,-0.86636 0,1.71238 7.50414,8.61636 9.36538,8.61636 0.74778,0 3.05836,1.35 5.13462,3 2.69687,2.1432 4.85889,3 7.57012,3 2.88596,0 3.94355,0.4677 4.41475,1.95233 0.35544,1.11989 3.26225,3.20667 6.81739,4.89416 3.40876,1.61801 7.24512,4.158 8.52525,5.64442 1.96368,2.28013 2.85406,2.60381 5.69599,2.07066 2.76747,-0.51918 3.56792,-0.25927 4.48631,1.45676 2.75192,5.142 12.38048,7.74841 16.12049,4.36375 0.98328,-0.88986 3.25231,-1.91745 5.04228,-2.28354 4.85081,-0.9921 7.05197,-5.28634 5.55812,-10.84334 -1.42241,-5.29121 -0.33919,-6.81725 3.73854,-5.26689 6.00402,2.28272 9.2215,-2.21959 6.16565,-8.62776 -2.75628,-5.77999 -2.3094,-6.72485 2.84637,-6.01817 3.77805,0.51784 4.79805,0.27419 6.5,-1.55264 2.54685,-2.73372 2.53153,-3.01717 -0.41517,-7.68504 -2.6219,-4.15337 -6.53879,-7.64387 -9.70542,-8.64892 -2.92469,-0.92826 -1.82901,-3.778 1.73266,-4.50644 1.69469,-0.3466 3.60447,-0.95355 4.24396,-1.34878 1.6193,-1.00078 1.45258,-4.1151 -0.29807,-5.56801 -2.13832,-1.77464 -8.9357,-2.43859 -12.44423,-1.21551 -2.81564,0.98154 -3.21398,0.82112 -5.2834,-2.12773 -1.23099,-1.75412 -2.82077,-3.63931 -3.53285,-4.18931 -0.71208,-0.55 -2.0786,-2.575 -3.03671,-4.5 -1.42652,-2.8661 -2.42504,-3.59056 -5.51318,-4 -2.60435,-0.3453 -4.30605,-1.30214 -5.5,-3.09257 -0.95087,-1.42592 -2.62885,-3.90914 -3.72885,-5.51827 -1.1,-1.60913 -5.22894,-5.84247 -9.17543,-9.40742 -3.94649,-3.56496 -7.46284,-7.41483 -7.81412,-8.55528 -0.57858,-1.8784 -9.5521,-10.76518 -24.60707,-24.36922 -3.07815,-2.78148 -6.32481,-5.05724 -7.21482,-5.05724 -0.89001,0 -2.07833,-0.85978 -2.64073,-1.91062 -0.56239,-1.05084 -2.71572,-2.93184 -4.78518,-4.18 -2.06946,-1.24816 -5.41766,-3.55046 -7.44046,-5.11623 -2.0228,-1.56577 -5.1728,-3.346 -7,-3.95607 -1.8272,-0.61006 -4.44719,-2.07773 -5.82219,-3.26147 -1.375,-1.18375 -5.875,-3.64936 -10,-5.47913 -4.125,-1.82978 -8.97208,-4.02605 -10.77128,-4.88061 -2.7676,-1.3145 -4.24808,-1.37375 -9.6153,-0.3848 -3.48921,0.64291 -7.79038,1.16893 -9.55816,1.16893 -3.1348,0 -13.89307,3.6735 -19.20955,6.55926 -1.45986,0.79241 -3.27621,1.44074 -4.03632,1.44074 -0.76012,0 -6.99119,2.89626 -13.84683,6.43612 -11.19862,5.78234 -13.18434,7.22986 -19.54826,14.25 -8.24414,9.09424 -15.68777,19.74089 -18.39741,26.31388 -0.56682,1.375 -1.75293,3.77979 -2.63578,5.34397 -0.88286,1.56418 -2.18383,5.16418 -2.89104,8 -1.38318,5.54632 -3.23215,11.10126 -4.62411,13.89246 -0.47628,0.95504 -0.86596,2.61598 -0.86596,3.69098 0,1.07501 -0.41084,2.20847 -0.91299,2.51881 -0.50214,0.31034 -1.23035,2.4744 -1.61825,4.80902 -0.38789,2.33462 -1.31957,5.44546 -2.0704,6.91298 -2.03355,3.97465 -6.34529,17.60915 -7.03978,22.26103 -0.5963,3.99421 -5.1841,16.59865 -7.86741,21.61477 -0.74849,1.3992 -1.90231,5.6742 -2.56405,9.5 -0.70921,4.10018 -2.994,10.6952 -5.56515,16.06374 -2.39908,5.00926 -4.36197,9.69883 -4.36197,10.42126 0,0.72242 -0.60089,2.02393 -1.33531,2.89224 -0.73441,0.86831 -1.94167,3.15374 -2.6828,5.07874 -0.74112,1.925 -2.39023,4.77203 -3.66469,6.32673 -1.27446,1.55469 -2.3172,3.28973 -2.3172,3.85564 0,0.5659 -1.125,2.3659 -2.5,4 -1.375,1.63409 -2.5,3.51597 -2.5,4.18195 0,0.66597 -2.2853,3.44395 -5.07846,6.17327 -2.79315,2.72933 -5.6963,6.13531 -6.45144,7.56885 -0.93868,1.78197 -2.79478,3.00453 -5.86775,3.8649 -4.12393,1.15463 -4.71657,1.08397 -7.18341,-0.85644 -1.47876,-1.1632 -3.2944,-2.1149 -4.03475,-2.1149 -0.74035,0 -1.60012,-1.2375 -1.9106,-2.75 -1.57227,-7.65916 -2.83056,-10.35565 -6.84286,-14.6642 -4.35602,-4.67762 -4.38711,-4.69094 -7.74835,-3.31941 -2.61779,1.06816 -3.81592,2.48251 -5.3414,6.30533 -1.08164,2.71055 -2.1015,5.12143 -2.26635,5.3575 -0.16486,0.23608 -1.88436,-0.32642 -3.82111,-1.25 -1.93676,-0.92357 -4.37158,-1.67922 -5.41072,-1.67922 -3.09512,0 -7.77065,4.68896 -8.73153,8.75662 -0.74163,3.13952 -1.63807,4.10165 -5.55708,5.96435 -2.77956,1.32111 -5.27792,3.39114 -6.16634,5.10914 -0.82144,1.5885 -2.82031,3.43775 -4.44191,4.10944 -4.9295,2.04187 -7.38242,5.46612 -7.91949,11.05555 -0.381,3.96513 -0.092,5.49599 1.33532,7.07316 1.72357,1.90452 1.73056,2.16686 0.1299,4.87656 -1.8887,3.19731 -2.18441,7.26597 -0.72613,9.99079 0.53105,0.99227 3.56855,2.83626 6.75,4.09776 7.94309,3.14955 8.28446,3.52572 8.28446,9.12891 0,6.29473 3.07709,12.56798 6.5982,13.45172 1.41564,0.35531 5.46578,0.41387 9.00031,0.13016 5.0576,-0.40598 7.21429,-0.11417 10.12539,1.36999 4.49603,2.29221 9.07251,2.41718 12.05359,0.32915 z m -12.25533,-6.00314 c -2.4258,-3.18039 -2.58808,-3.86681 -1.52237,-6.43964 1.37515,-3.31991 0.69504,-5.00052 -2.02362,-5.00052 -2.33334,0 -3.97617,2.85049 -3.97617,6.89907 0,4.71452 -6.19877,6.87388 -10.55887,3.67821 -1.66113,-1.2175 -1.94113,-2.66508 -1.94113,-10.03543 0,-9.65115 -0.58652,-10.58048 -6.53906,-10.361 -9.77007,0.36023 -13.8987,-8.21905 -4.84624,-10.07047 3.50466,-0.71678 5.49354,-4.11038 2.40896,-4.11038 -0.89264,0 -2.95063,-0.68656 -4.57332,-1.52568 -2.41685,-1.2498 -2.95034,-2.16028 -2.95034,-5.03518 0,-4.08642 2.51289,-8.44203 4.86501,-8.43255 0.89924,0.004 2.98499,0.90066 4.63499,1.99341 6.40199,4.23987 9.83239,1.00163 4.62759,-4.36836 -2.76464,-2.85239 -2.97724,-3.455 -1.79115,-5.07707 1.19433,-1.63334 2.24978,-1.76168 9.37566,-1.14009 9.85689,0.85983 11.07565,-0.42023 5.89055,-6.18684 -2.70788,-3.01158 -3.18835,-4.16411 -2.50122,-5.99981 2.00087,-5.34531 8.08464,-3.29246 11.10171,3.74607 3.61338,8.42968 6.79686,7.2441 6.79686,-2.53125 0,-12.27329 3.51447,-14.91556 9.00945,-6.77354 3.33666,4.94399 3.46978,6.82443 1.42766,20.16759 -1.13621,7.42395 2.06204,7.94732 6.80339,1.11334 1.50727,-2.17252 3.19477,-3.95004 3.75,-3.95004 1.80467,0 1.06839,2.77656 -1.56672,5.90822 -3.0042,3.57028 -2.85349,6.45634 0.36107,6.91456 2.6219,0.37374 5.96625,4.83688 4.6138,6.15727 -0.49426,0.48255 -2.46996,1.02194 -4.39046,1.19865 -5.52374,0.50827 -5.09039,3.15288 1.1744,7.16695 8.63787,5.53459 13.75459,15.66168 8.30754,16.44243 -1.27459,0.1827 -3.45237,-1.18917 -5.95294,-3.75 -5.76724,-5.90618 -10.12177,-4.91229 -6.00506,1.37062 2.30265,3.51429 3.0555,11.85872 1.20824,13.39181 -2.47805,2.0566 -4.56146,0.30385 -6.70784,-5.64324 -2.73644,-7.58201 -3.39327,-8.60575 -5.74801,-8.95891 -1.92237,-0.28832 -1.98955,0.11274 -1.52065,9.07734 0.48649,9.30076 0.46755,9.39711 -2.2715,11.55164 -3.8544,3.03187 -5.83302,2.72589 -8.97021,-1.38718 z m 33.92393,-45.62164 c -3.0482,-2.67636 -3.53133,-3.64232 -3.04296,-6.08415 0.78769,-3.93846 4.34282,-8.73437 6.47465,-8.73437 1.97285,0 17.49558,-14.67136 21.16058,-20 1.32401,-1.925 3.14872,-4.30978 4.05491,-5.29951 0.9062,-0.98972 2.42037,-3.68972 3.36484,-6 0.94446,-2.31027 4.43581,-10.05049 7.75856,-17.20049 7.26942,-15.6426 7.62115,-16.46028 12.25957,-28.5 2.01299,-5.225 4.30432,-10.97777 5.09187,-12.78393 0.78754,-1.80616 1.43189,-4.24921 1.43189,-5.429 0,-2.16303 1.16735,-6.34825 3.56661,-12.78707 0.7173,-1.925 1.75988,-5.75 2.31684,-8.5 2.81906,-13.91895 5.84448,-25.61776 8.24534,-31.88335 1.02917,-2.68585 1.87121,-5.73458 1.87121,-6.77497 0,-1.04038 1.575,-5.01914 3.5,-8.84168 1.925,-3.82254 3.5,-7.58121 3.5,-8.35259 0,-0.77139 0.62443,-1.92075 1.38762,-2.55414 0.76319,-0.63339 2.73782,-3.95099 4.38808,-7.37244 2.23436,-4.63249 5.54653,-8.71026 12.9723,-15.97083 5.48452,-5.3625 10.49768,-9.75 11.14037,-9.75 1.52732,0 16.17184,-6.88407 18.11163,-8.51388 1.71508,-1.44101 12.22809,-4.66081 22.5,-6.89103 9.80548,-2.12895 23.19704,-0.0629 30.31565,4.67719 2.02639,1.34931 6.60935,4.11033 10.18435,6.1356 13.42649,7.60624 29.29616,18.59667 34.58805,23.95373 2.24843,2.27611 10.51886,10.21339 18.37874,17.63839 7.85987,7.425 15.00422,14.58075 15.87633,15.90167 1.50124,2.27381 1.45755,2.48677 -0.82056,4 -2.84842,1.89206 -14.02256,2.45642 -14.02256,0.70822 0,-1.37912 -6.65863,-7.60989 -8.13245,-7.60989 -0.58582,0 -2.32622,1.35 -3.86755,3 -3.53505,3.78428 -7.89418,3.9486 -15.22785,0.57403 -2.89968,-1.33429 -7.85965,-3.17617 -11.02215,-4.09308 -3.1625,-0.9169 -5.75,-2.16352 -5.75,-2.77027 0,-2.25411 -5.24473,-8.56941 -8.09835,-9.75142 -2.55381,-1.05782 -3.23389,-0.96882 -5.03422,0.65885 -1.14484,1.03504 -2.76471,3.58811 -3.5997,5.67348 -0.835,2.08538 -1.79932,3.64864 -2.14295,3.47391 -0.34363,-0.17472 -2.30506,-1.17334 -4.35874,-2.21915 -3.26739,-1.66388 -4.05172,-1.73142 -6.27698,-0.54049 -1.39867,0.74854 -2.79636,2.37032 -3.10598,3.60396 -0.30962,1.23365 -1.3246,2.93227 -2.2555,3.77473 -1.52869,1.38344 -2.1735,1.30162 -6.66007,-0.84508 -10.18151,-4.87157 -11.8023,-4.37754 -13.99676,4.26633 -1.10612,4.35695 -1.4607,4.73799 -4.9354,5.30371 -3.60786,0.5874 -5.48786,2.13141 -5.52004,4.5335 -0.02,1.49017 -2.38333,2.35699 -6.4263,2.35699 -2.21103,0 -4.97743,1.26998 -8.66822,3.97935 -8.70728,6.39194 -9.35828,6.60828 -12.48486,4.14891 -1.48811,-1.17054 -3.70022,-2.12826 -4.9158,-2.12826 -2.72058,0 -6.12537,3.57831 -5.72304,6.01471 0.21149,1.28079 -0.68999,2.12487 -3.12908,2.92984 -6.62297,2.18578 -7.52467,4.7038 -5.12278,14.30545 0.53136,2.12412 0.33071,2.75 -0.8816,2.75 -5.71242,0 -9.42968,5.37739 -8.11097,11.73333 0.9445,4.55231 0.70907,6.27142 -1.14291,8.34541 -1.49287,1.67182 -1.87856,6.72576 -0.64444,8.44436 0.40408,0.5627 1.97219,1.81058 3.48469,2.77305 2.27861,1.44999 2.75545,2.47451 2.7818,5.9769 0.0175,2.32482 0.6925,5.10046 1.5,6.16808 0.80751,1.06762 1.4682,3.16254 1.4682,4.65539 0,1.63739 1.3886,4.3763 3.5,6.90348 1.925,2.30407 3.5,5.294 3.5,6.64427 0,6.30739 5.34832,10.84523 9.90686,8.40558 2.76117,-1.47774 2.76478,0.16679 0.0157,7.16313 -2.15678,5.489 -8.89734,14.14972 -16.82512,21.61804 -7.39862,6.96982 -8.46537,7.55205 -22.23882,12.13801 -3.10275,1.03307 -6.47775,2.34488 -7.5,2.91511 -6.2543,3.48878 -17.76821,7.50705 -23.35061,8.14921 -3.57942,0.41175 -7.77483,1.24768 -9.32314,1.85764 -1.5483,0.60996 -6.2733,1.1159 -10.5,1.12432 -4.22669,0.008 -8.3599,0.45153 -9.1849,0.98469 -2.20701,1.42628 -2.59014,1.29876 -6.55391,-2.18148 z M 316.5904,449.48706 c -0.378,-1.19095 -1.52261,-1.91054 -3.039,-1.91054 -1.88178,0 -2.43261,0.52835 -2.43261,2.33333 0,3.64823 -1.19047,3.96064 -3.59607,0.94372 l -2.21181,-2.77387 -1.84606,3.24209 c -3.19069,5.60355 -6.85693,3.30175 -5.75154,-3.61103 0.60289,-3.77022 0.44715,-4.1679 -1.99593,-5.09676 -4.27506,-1.62537 -4.3474,-3.85288 -0.25065,-7.71792 2.00863,-1.89504 3.65206,-3.77718 3.65206,-4.18254 0,-1.86237 -2.50018,-2.87962 -5.94264,-2.41789 -4.87125,0.65337 -6.11806,-1.79318 -3.03737,-5.96004 2.5886,-3.50127 2.24743,-6.8279 -0.85845,-8.37037 -1.42331,-0.70686 -1.91249,-1.42461 -1.25,-1.83405 1.78114,-1.10081 1.24909,-3.94839 -1.41154,-7.55467 -4.87935,-6.61359 -2.58019,-9.29861 5.6784,-6.63138 7.30372,2.35884 8.46575,2.16062 9.21216,-1.57142 0.57661,-2.88307 0.11839,-3.73153 -4.59007,-8.49922 -4.89788,-4.95949 -5.12379,-5.40325 -3.55114,-6.9759 1.41075,-1.41075 2.25666,-1.50234 5.28669,-0.5724 3.12803,0.96002 3.86336,0.85092 5.53558,-0.8213 1.06061,-1.06061 1.92838,-2.65586 1.92838,-3.54501 0,-1.59423 1.16115,-1.57616 5.17268,0.0805 1.08627,0.4486 2.31331,-0.0507 3.5,-1.42431 5.62237,-6.50777 9.7271,-9.5417 14.59483,-10.78744 3.98211,-1.01909 5.79067,-1.05645 7.94502,-0.16409 3.78648,1.56842 6.18783,-0.33624 5.39867,-4.28202 -0.65361,-3.26804 1.05455,-3.72635 4.78308,-1.28332 3.02175,1.97992 5.92534,0.92493 5.25187,-1.90823 -1.48374,-6.24185 -1.81219,-11.61446 -0.71003,-11.61446 2.07627,0 6.49494,2.74893 9.50097,5.91072 3.33642,3.5093 5.02968,3.86103 6.44732,1.33928 0.57309,-1.01944 2.15932,-1.75 3.79969,-1.75 2.67586,0 2.80648,-0.21137 2.62657,-4.25 -0.24728,-5.55103 1.69353,-5.62234 6.80411,-0.25 5.13462,5.3976 7.36114,5.37768 6.49192,-0.0581 -0.74731,-4.67344 2.43965,-13.4233 4.62642,-12.70191 1.93843,0.63947 3.73573,4.85951 3.75214,8.80999 0.021,5.06534 1.41592,5.95 9.38169,5.95 6.08272,0 7.77511,0.44422 13.33443,3.5 8.6344,4.74606 12.59509,4.66517 15.21662,-0.31077 1.93192,-3.66697 3.54118,-2.11268 3.22001,3.11002 -0.42181,6.8594 0.43067,8.70075 4.02817,8.70075 2.07082,0 3.90903,-0.93951 5.80104,-2.96491 3.18367,-3.40813 4.03278,-3.05799 4.03278,1.66296 0,4.76085 2.37829,5.29687 6.36352,1.43423 1.77743,-1.72275 3.76745,-3.13228 4.42227,-3.13228 0.65482,0 1.47705,1.7915 1.82718,3.98112 1.07043,6.6941 2.83498,7.07658 7.7831,1.68706 4.74375,-5.16692 6.02505,-5.61833 7.5991,-2.67721 0.80029,1.49537 0.68459,2.72762 -0.46482,4.95034 -2.04846,3.96128 -1.92934,5.05869 0.54911,5.05869 1.80063,0 1.98907,0.41148 1.40541,3.06889 -0.56572,2.57569 -0.33742,3.15691 1.42054,3.61663 1.15203,0.30126 2.09459,1.13357 2.09459,1.84958 0,0.71601 2.88127,2.26066 6.40282,3.43256 7.2433,2.41042 15.8688,7.70806 15.31259,9.40475 -0.59218,1.80642 -5.55577,1.90862 -9.82054,0.2022 -8.14834,-3.26032 -8.82717,-1.46242 -2.89487,7.6672 6.06285,9.33052 5.4135,10.65689 -2.94141,6.00819 -3.93325,-2.18847 -5.19703,-2.49707 -6.18919,-1.51133 -0.99504,0.9886 -0.6995,2.79103 1.46393,8.928 3.29344,9.34244 2.40126,11.40689 -2.76547,6.3991 -4.77892,-4.6319 -6.56786,-3.70504 -6.56786,3.40285 0,3.04226 -0.4132,5.53138 -0.91821,5.53138 -4.5025,0 -7.4666,-5.25112 -6.52152,-11.55336 0.61169,-4.07899 0.49073,-4.44664 -1.4629,-4.44664 -1.44939,0 -2.66289,1.11806 -3.79876,3.5 -3.06667,6.43088 -7.99876,3.65463 -6.87075,-3.86752 0.53028,-3.53616 0.34136,-4.50706 -0.97533,-5.01232 -1.89211,-0.72607 -3.42096,0.0206 -5.25923,2.56863 -2.79465,3.87363 -8.1933,0.72908 -8.1933,-4.77235 0,-1.80047 -0.76769,-4.04128 -1.70598,-4.97957 -1.60798,-1.60797 -1.85632,-1.52591 -4.32283,1.42857 -1.43926,1.72401 -3.09843,3.13456 -3.68703,3.13456 -1.53529,0 -2.25416,-2.43645 -1.20695,-4.09068 1.30529,-2.06192 1.12242,-3.56683 -0.64864,-5.33789 -2.2454,-2.24541 -3.93685,-1.94605 -5.24662,0.92857 -3.16988,6.95715 -11.06027,-2.26444 -12.40682,-14.5 -0.18515,-1.68242 -0.88985,-2.5 -2.15482,-2.5 -1.80585,0 -3.27515,3.34148 -5.05671,11.5 -1.05114,4.81359 -2.17926,5.65348 -4.64773,3.46024 -1.21343,-1.07813 -3.07375,-3.89941 -4.13406,-6.2695 -2.64767,-5.91832 -5.16843,-5.43631 -5.5866,1.06825 -0.16764,2.60756 -0.74531,4.74101 -1.28373,4.74101 -0.53841,0 -1.92115,-1.59694 -3.07275,-3.54876 -2.85903,-4.84569 -5.24219,-4.27115 -5.64889,1.36186 -0.3713,5.14273 -2.35103,6.32355 -5.55517,3.31341 -3.36603,-3.16222 -4.63467,-2.67178 -4.63467,1.7917 0,6.74404 -0.66857,7.47489 -4.6753,5.11086 -1.89146,-1.11599 -3.8633,-2.02907 -4.38186,-2.02907 -1.75587,0 -0.95543,3.59438 1.55959,7.00329 1.42083,1.92584 2.12604,3.76824 1.63159,4.26269 -1.02157,1.02157 -6.16435,-1.20388 -11.0319,-4.77388 -6.28281,-4.60799 -8.85437,-2.2281 -4.70126,4.35085 l 2.54343,4.02905 -6.3948,-0.46737 c -5.8116,-0.42474 -6.45502,-0.27764 -7.05507,1.61296 -0.39854,1.25568 -10e-4,3.08634 1.00255,4.61814 2.05215,3.13196 1.27641,4.11613 -1.90312,2.41449 -4.26532,-2.28272 -5.73604,1.10216 -3.12829,7.19978 0.59988,1.40269 0.24641,1.75 -1.78102,1.75 -3.28116,0 -5.18095,5.20403 -4.22557,11.57498 0.75541,5.03739 -0.49477,5.82621 -3.05093,1.92502 -1.9203,-2.93075 -3.95588,-3.21339 -5.28304,-0.73356 -0.64303,1.20151 -0.50571,2.56069 0.42938,4.25 0.75611,1.36596 1.3907,2.83143 1.41018,3.25661 0.0676,1.4751 -4.88978,-2.46207 -5.49295,-4.36251 z"
           style="fill:#000000;fill-opacity:1"
           sodipodi:nodetypes="csssssssssssssssssssssssssssssssssssssssssssssssssssssssssssssssssssssssssssssssssssssssssssssssssssssssssssssssssssssssssssssssssssssccssssssssssssssssssssssssssssssssssssccsssssssssssssssssssssssssssssssssssssssssssssssssssssssssssssssssssssssscsscccsssssssssssssssssssssssssssssssssssssssssssssssssssssssssssssssssssssssssssssssssssssssscccssssssssssc" />
      </g>
    </g>
  </g>
</svg>
