<?xml version="1.0" encoding="utf-8"?>
<!-- Generator: Adobe Illustrator 23.0.1, SVG Export Plug-In . SVG Version: 6.00 Build 0)  -->
<svg version="1.1" id="Layer_1" xmlns="http://www.w3.org/2000/svg" xmlns:xlink="http://www.w3.org/1999/xlink" x="0px" y="0px"
	 viewBox="0 0 300 300" style="enable-background:new 0 0 300 300;" xml:space="preserve">
<style type="text/css">
	.st0{fill:#160405;}
	.st1{fill:#BE2E2E;}
	.st2{fill:#FFFFFF;}
</style>
<g>
	<path class="st0" d="M151.1,75.1c0.4-0.3,0.6-0.5,0.8-0.7c2.9-3.6,6.5-6.7,9.7-10c3.5-3.6,7.5-6.2,11.9-8.3c4.3-2.1,8.7-4,13.3-5.6
		c4-1.3,8.2-2.1,12.4-2.3c6.8-0.2,13.5,0,20.1,1.7c8.1,2.1,15.6,5.7,22.1,11.1c2.2,1.8,4.4,3.5,6.5,5.3c6,5.2,10.8,11.5,14,18.8
		c5.7,12.7,8.6,25.9,8.1,39.9c-0.3,7.6-2.2,14.8-4.3,22.1c-1.5,5.4-4.1,10.4-6.8,15.3c-4.4,8-8.8,16.1-14.6,23.3
		c-1.4,1.7-2.8,3.2-4.5,4.7c-1.4,1.2-2.8,2.5-4.1,3.8c-9.8,10.3-20.8,19.2-32.2,27.8c-5.6,4.2-11,8.7-16.6,12.9
		c-9.6,7.3-19.7,13.8-30.4,19.3c-0.7,0.4-1.4,0.6-2.2,0.9c-2.6,1-5,0.8-7.4-0.5c-3.5-2-6.8-4.2-10.2-6.4
		c-8.8-5.9-17.7-11.6-26.2-18.1c-7.9-6-15.9-11.8-23.5-18.2c-7.7-6.5-15.3-13.2-22.3-20.5c-5.4-5.7-10.8-11.4-15.1-18.2
		c-1.6-2.6-3.9-4.9-5.3-7.6c-3.2-6-6.4-12-8.9-18.3c-1.8-4.6-2.8-9.4-3.5-14.4c-0.7-5.5-2-10.8-2.2-16.4c-0.2-4.9,0-9.7,1.3-14.5
		c1.2-4.3,2.1-8.8,4-12.9c2.3-4.9,4.9-9.7,8.3-14c3.6-4.4,7.3-8.6,11.8-12.2c3.5-2.8,7.4-4.9,11.2-7.1c4.2-2.5,8.7-4.4,13.4-5.6
		c8.7-2,17.4-3.4,26.4-2.6c3.1,0.3,6,1.4,8.9,2.2c10.2,2.8,19,8.2,26.8,15.2c2.5,2.2,4.2,5.1,6.5,7.5
		C149.4,73.4,150.1,74.4,151.1,75.1z M140.1,155.3c1-0.3,1.5-1,1.9-1.9C141.1,153.8,140.3,154.3,140.1,155.3c0,0-0.1,0-0.2,0.1
		c0,0,0,0.1,0,0.1C140,155.5,140.1,155.4,140.1,155.3z M166,130c2.9-1.2,5-3.5,7.3-5.6c0.4-0.3,0.6-0.8,0.8-1.3
		c0.2-0.5,0.3-1.2-0.2-1.6c-0.5-0.5-1.1-0.5-1.8-0.2c-0.4,0.2-0.7,0.5-0.9,0.9c-1.5,2-3,4-4.5,6.1C166.3,128.7,165.7,129.2,166,130
		c0,0.1-0.1,0.1-0.1,0.1C165.9,130.1,165.9,130,166,130z M85.3,100.4c1.4-0.1,2.6-0.6,3.7-1.6c3.9-3.7,7.8-7.4,11.2-11.6
		c2.4-2.9,2.4-3.4,0.1-6.5C95,73.8,89.7,67,85.5,59.5c-0.1-0.2-0.2-0.3-0.3-0.5c-0.6-1-1.4-1.4-2.5-1.2c-3.9,0.4-7.6,1.2-11,3.3
		c-3,1.8-5.8,3.7-8.6,5.8c-4.2,3.2-8.6,6.3-12.2,10.2c-2,2.1-3.8,4.3-5.1,6.9c-1.4,2.6-1,3.9,1.4,5.4c1.4,0.9,2.8,1.7,4.2,2.6
		c4.2,2.6,8.6,4.8,12.6,7.8c0.2,0.2,0.5,0.3,0.7,0.5c1.4,0.7,2.3,0.5,3-0.9c0.6-1.1,1-2.2,1.3-3.4c0.5-1.9,1-3.7,1.7-5.5
		c1-2.4,2.8-2.5,4.3-0.4c0.1,0.1,0.2,0.2,0.2,0.4c1.9,3.8,5.3,6.4,7.9,9.6C83.8,100.3,84.5,100.4,85.3,100.4z M216.7,57.5
		c-1.6-0.4-2.1,0.6-2.7,1.4c-3.6,5.4-7.2,10.9-10.7,16.3c-0.9,1.4-1.8,2.9-3,4.2c-1.4,1.5-1.4,3-0.5,4.7c0.3,0.6,0.7,1.2,1.2,1.8
		c3.4,4.2,7.1,8,11.3,11.4c0.7,0.6,1.5,1.1,2.3,1.5c1.4,0.8,2,0.7,3.2-0.4c1.9-1.8,3.6-3.7,4.9-6c0.5-0.9,1.2-1.8,2-2.5
		c1.9-1.4,2.6-1.2,3.6,0.9c0.2,0.4,0.3,0.8,0.5,1.2c1,2.1,1.4,4.3,2.2,6.5c0.7,2.1,1.4,2.4,3.4,1.5c3.2-1.5,6.4-2.9,9.4-4.6
		c3.2-1.8,6.6-3.5,9.3-6.1c2-1.9,2.2-2.4,0.6-4.7c-4.1-6.2-8.9-11.9-14.8-16.6c-4.8-3.8-9.9-6.7-15.6-8.8
		C221.1,58.4,218.8,57.6,216.7,57.5z M150,95.8c0-1.4-0.3-2.7-0.3-4.1c-0.1-6.4-3.3-11.6-6.7-16.7c-0.7-1-1.7-1.4-2.9-1.5
		c-1.1,0-1.9,0.3-2.8,0.8c-1.8,0.9-3.4,2.1-5.4,2.7c-4.6,1.5-9.3,2.9-13.9,4.3c-3.1,0.9-6.3,2-9.3,3.2c-2.1,0.8-2.1,1.1-1.1,3
		c0.8,1.4,1.7,2.8,2.7,4.1c4.2,5.9,8.6,11.6,12.5,17.7c1.5,2.3,3,4.7,4.9,6.8c0.9,1.1,2,1.5,3.4,1.3c5.6-0.7,10.8-2.5,15.9-5.1
		c1.7-0.8,2.6-1.9,2.3-3.8c-0.1-0.7,0-1.4,0.1-2.2C149.5,103,149.8,99.4,150,95.8z M151.1,183.3c-1.8,0-3.6-0.1-5.4,0
		c-3.2,0.2-5.4,1.6-6.3,4.8c-0.1,0.6-0.4,1.1-0.5,1.6c-2.7,9.3-5.4,18.7-8,28c-0.3,1.2-0.7,2.5-0.7,3.8c0,1.7,0,1.7,1.6,1.7
		c2,0.1,4-0.3,6-0.6c3-0.5,6-1.4,9.1-1.5c8.1-0.2,16.2-0.2,24.2,0.7c0.6,0.1,1.1,0.1,1.7,0.1c0.7,0,0.9-0.3,0.8-0.9
		c0-0.3-0.2-0.7-0.3-1c-0.9-2.6-1.8-5.3-2.7-7.9c-2-5.8-4.3-11.5-5.9-17.4c-0.8-2.7-1.5-5.5-2.8-8.1c-0.8-1.7-2.1-2.7-4.1-3.1
		C155.6,183.2,153.3,183.4,151.1,183.3z M151.7,102c-0.1,1.6,0.4,4.7,0.4,7.9c0,1,0.4,1.5,1.3,1.9c1.3,0.5,2.7,1.1,3.9,1.7
		c3.8,1.9,7.8,2.7,11.9,3.2c2,0.2,3.3-0.4,4.4-2.1c2.5-3.9,5.1-7.8,7.8-11.6c3.5-5,7.3-9.7,10.4-15c0.6-1.1,1.2-2.3,1.5-3.5
		c0.2-0.9-0.1-1.5-0.9-1.9c-1.5-0.8-3.1-0.9-4.8-1.2c-4.6-0.7-9.1-1.9-13.4-3.6c-2.8-1-5.4-2.3-8-3.6c-2-1-3.9-0.7-5.6,0.8
		c-0.8,0.7-1.4,1.4-2,2.2c-1.9,2.5-3.7,5.1-5.6,7.6c-0.6,0.8-0.9,1.6-0.9,2.6C152.1,91.7,151.9,96,151.7,102z M37.2,116.3
		c0,0.7,0,1.4,0,2.2c-0.2,4.3,0.3,8.6,1.4,12.7c0.6,2.3,1,2.8,3.4,3.1c4.5,0.6,8.9,1.1,13.4,1.6c3.3,0.4,6.5,0.9,9.8,0.9
		c1,0,1.5-0.3,1.4-1.4c-0.2-1.6-0.3-3.1-0.5-4.7c-0.4-4.1-0.8-8.3-1.1-12.4c-0.3-3.9-0.3-7.7,0.7-11.5c0.9-3.4,0.9-3.4-2-5.4
		c-0.1,0-0.1-0.1-0.2-0.1c-6-4-12.3-7.5-19-10.5c-1.4-0.6-1.8-0.5-2.5,0.9c-1.7,3.2-3.3,6.5-3.9,10.2
		C37.4,106.8,37.2,111.5,37.2,116.3z M137.9,185.1c0.4-1.6-0.5-2.6-1.9-3.5c-2.4-1.4-4.9-2.8-7.5-3.8c-1.9-0.8-3.9-1.5-6-1.5
		c-1,0-1.8,0.3-2.5,1c-1.7,1.7-3.5,3.3-5.3,5c-2.2,2.1-4.3,4.4-6.7,6.4c-4.8,3.9-9.3,8-13.6,12.5c-1,1-1,1.6,0.2,2.4
		c0.7,0.5,1.5,0.9,2.3,1.2c5.5,2.3,10.7,5.1,16.1,7.7c2.7,1.3,5,3,7.1,5.1c1.2,1.3,2.6,2.5,4,3.6c2.2,1.9,2.8,1.6,3.5-1.1
		c0.1-0.2,0.1-0.4,0.1-0.6c1-4.1,2.1-8.2,3.4-12.2c2-5.8,3.9-11.5,5.8-17.3C137.4,188.5,138.1,187,137.9,185.1z M263.2,121.8
		c0.1-2.8-0.5-5.9-0.7-9.1c-0.4-5.9-1.9-11.4-3.7-16.9c-0.3-1-0.8-2-1.4-2.9c-1.1-1.4-1.9-1.6-3.5-0.8c-5.6,3.1-11.1,6.3-16.6,9.5
		c-0.9,0.5-1.8,1.1-2.7,1.7c-1.3,0.9-1.7,2-1.2,3.5c0.4,1.2,0.8,2.5,1,3.7c0.5,4.8,0.8,9.7,0.6,14.6c-0.1,1.7-0.4,3.4-0.9,5.1
		c-0.4,1.2-0.8,2.5-1.1,3.7c-0.6,2.5,0.1,3.4,2.7,3.2c1.4-0.1,2.8-0.4,4.2-0.6c2.7-0.3,5.3-1,8.1-1.1c3.5-0.1,7-0.5,10.5-0.5
		c2.6,0,3.3-0.8,4-3.3C263.2,128.6,263.2,125.3,263.2,121.8z M109.8,158.4c2.8,0.2,5.4-0.3,7.8-1.5c2.9-1.4,5.8-2.8,8.6-4.3
		c1.7-0.9,3.3-1.9,4.6-3.4c1.2-1.5,1.3-1.6-0.2-2.8c-1.6-1.3-3.3-2.6-4.9-3.9c-7-6-15.1-9.8-23.9-12.2c-5.9-1.6-11.9-3.1-17.2-6.5
		c-0.3-0.2-0.6-0.3-1-0.4c-1.6-0.4-2.1-0.1-2.2,1.6c-0.1,2.4,0.4,4.7,0.8,7c2.3,12,8.8,20.6,20.4,25.1
		C105.1,158,107.4,158.7,109.8,158.4z M177.9,177.7c-1-0.1-2,0.2-3,0.7c-2.8,1.4-5.6,2.6-8.4,3.8c-1.1,0.5-2.1,1.9-1.9,3
		c0.3,1.1,0.2,2.3,0.8,3.5c0.8,1.6,1.3,3.4,1.9,5.1c0.6,1.7,1.1,3.5,1.7,5.2c1.4,3.8,2.9,7.6,3.9,11.5c0.8,3.2,1.8,6.3,2.9,9.4
		c1,2.8,1.8,2.9,3.9,1c6.9-6.3,14.6-11.6,23.5-14.8c0.9-0.3,1.7-0.6,2.6-1.1c1.6-0.8,1.6-1.7,0.2-2.7c-0.6-0.5-1.4-0.8-2-1.3
		c-7.2-6.9-14.3-13.8-21.5-20.7c-0.5-0.5-1.1-1-1.5-1.5C180.1,177.9,179.2,177.5,177.9,177.7z M168.3,147.1c0.5,0.3,0.8,0.6,1.1,0.8
		c2.7,1.8,5.5,3.4,8.3,4.9c3.4,1.9,6.9,3.3,11,3.3c1.9,0,3.9-0.1,5.8-0.4c4.7-0.7,9.1-2.1,12.6-5.5c0.9-0.8,1.8-1.6,2.8-2.3
		c1.3-1,2.2-2.2,3-3.6c1.5-3,2.9-6,4.2-9.2c1.4-3.5,2.4-7,2.4-10.8c0-1.6-0.3-2-1.9-1.5c-1.2,0.4-2.4,1-3.5,1.5
		c-4.8,2-9.8,3.2-14.7,4.8c-6.6,2-12.9,4.7-18.8,8.3c-2.9,1.8-5.7,3.9-8.5,5.9C170.6,144.2,169.3,145.3,168.3,147.1z M181.4,173.6
		c-0.1,1.1,0.2,2,1,2.7c1.3,1.3,2.6,2.7,4,3.9c6.3,5.7,12.5,11.6,18.4,17.7c0.8,0.8,1.7,1.5,2.6,2.2c2.8,2,2.8,2.1,4.3-1
		c3.6-7.8,7.9-15.1,14.2-21.1c0.9-0.8,1.6-1.9,2.2-2.9c0.6-1.2,0.5-2.2-1-2.6c-0.5-0.1-0.9-0.3-1.4-0.5c-6.1-1.4-12-3.3-18-4.9
		c-1.7-0.5-3.2-0.5-4.9,0c-1.1,0.3-2.2,0.5-3.3,0.8c-2.8,0.8-5.6,0.8-8.5,0.2c-1.9-0.4-3.8-0.7-5.7-0.5c-0.7,0-1.3,0.1-1.7,0.7
		C182.5,170.1,181.7,171.8,181.4,173.6z M90.5,166.5c0.2,0-0.1,0-0.4,0c-5.3,1.1-10.5,2.6-15.6,4.5c-1,0.4-1.2,1.1-1,2.1
		c0.2,0.7,0.6,1.3,1.1,1.8c4,4.2,7,9,9.7,14.1c1.9,3.5,4,6.9,5.6,10.6c0.3,0.8,0.9,1.3,1.6,0.6c1.3-1.3,3-2.2,4.4-3.4
		c4.6-4.3,9.3-8.5,13.9-12.8c3-2.8,5.8-5.7,8.7-8.6c0.9-0.9,1.2-1.9,0.8-3.1c-1-2.5-3-3.5-5.7-2.9c-6.1,1.4-12,1-17.8-1.6
		C94.3,167.2,92.7,166.4,90.5,166.5z M100.9,54.8c-1.1,0-2.2-0.1-3.2,0c-3,0.3-5.9,0.7-8.9,1.1c-1.3,0.2-1.7,0.9-1.2,2.1
		c0.5,1.1,1.1,2.2,1.7,3.2c4.2,6.9,8.8,13.5,13.9,19.8c0.9,1.1,1.7,1.2,3,0.9c4.7-1.3,9.4-2.5,14-3.9c5.3-1.6,10.6-3.2,15.5-5.7
		c1.8-0.9,1.8-1.3,0.5-2.8c-0.3-0.3-0.6-0.6-0.9-0.9c-4-3.9-8.6-6.8-13.7-9.1C115,56.6,108.2,54.7,100.9,54.8z M177.6,231.4
		c0-1.8-2.4-5-4.2-5.5c-2.8-0.8-5.6-1.5-8.4-1.6c-7-0.2-14-0.5-21,0.3c-2.4,0.3-4.8,0.6-7.2,1c-2.5,0.4-4.9,0.8-7.3,1.6
		c-1.9,0.6-2.5,2-2.7,3.7c-0.2,1.6,0.7,2.6,1.8,3.4c1.3,1,2.7,1.9,4.1,2.8c4.9,3.4,9.9,6.9,15.1,9.9c2.4,1.4,4.6,1.4,6.9,0.2
		c1.2-0.6,2.4-1.3,3.5-2.1c2.5-1.6,5-3.1,7.6-4.5c3.6-2,7.1-4.2,10.4-6.8C176.9,233.2,177.6,232.6,177.6,231.4z M259.1,137.4
		c-1.9,0.6-4,0.2-6,0.5c-4.6,0.7-9.3,1.7-14,1.6c-1.3,0-2.6,0.2-3.9,0.3c-2,0.2-3.3,1.2-3.9,3.2c-0.5,1.7-0.7,3.5-1,5.3
		c-1,6.7-0.8,13.4,0.6,20.1c0.4,1.9,1.4,3.3,3.2,4c2.2,0.8,4.3,1.6,6.5,2.3c2.1,0.7,2.8,0.3,4.2-1.5c1.4-1.7,2.3-3.7,3.3-5.5
		c2.8-5.1,6.1-9.9,8.1-15.4c1.5-4.3,2.9-8.7,4.2-13.1C260.8,137.7,260.5,137.4,259.1,137.4z M205.6,55.1c-2.9,0.3-5.9,0.3-8.8,0.8
		c-7.8,1.1-15.2,3.3-22.2,7.1c-2.7,1.5-5.2,3.3-7.3,5.6c-1.5,1.7-1.4,2.4,0.6,3.5c2.5,1.3,5,2.4,7.6,3.5c6,2.5,12.3,3.7,18.6,4.9
		c1.7,0.3,2.9-0.3,3.9-1.7c4.9-6.5,9.6-13,13.6-20.1c1-1.8,0.7-2.5-1.3-3C208.7,55.3,207.2,55,205.6,55.1z M69.5,157.2
		c0.1-3.6-0.3-7.1-0.4-10.6c-0.1-1.6-0.5-3.1-0.8-4.6c-0.3-1.4-1.1-2.1-2.5-2.3c-0.4-0.1-0.8-0.2-1.2-0.3c-4.7-1-9.5-1.3-14.3-1.6
		c-2.7-0.2-5.4-0.6-8.1-0.5c-1.9,0.1-2,0.1-1.5,2c0.8,2.8,1.9,5.4,3,8c3.1,7.6,7.1,14.7,11.1,21.8c1.5,2.7,3.5,3.5,6.5,2.8
		c1.7-0.4,3.4-1,5.2-1.5c1.9-0.5,2.8-1.7,2.8-3.6C69.2,163.6,69.7,160.4,69.5,157.2z M177.5,120.8c0.5-0.1,1.1-0.3,1.7-0.5
		c6.4-1.9,12.4-4.9,18.3-8c4.8-2.5,9.3-5.6,13.9-8.6c2-1.3,2-2.6,0.1-4.1c-1.5-1.1-2.8-2.4-4.1-3.8c-2.9-2.9-5.8-5.9-8.8-8.9
		c-0.5-0.5-0.9-0.9-1.5-1.2c-0.5-0.4-1.1-0.4-1.5,0.3c-0.2,0.4-0.5,0.7-0.7,1.1c-4.1,7.1-8.8,13.7-13.8,20.2c-1.6,2.1-3,4.3-4.5,6.5
		c-0.8,1.1-1.3,2.4-1.7,3.7C174.5,119.3,175.7,120.8,177.5,120.8z M126,119.4c-0.1-0.3-0.2-0.8-0.4-1.4c-0.7-2.2-2-4.1-3.3-6
		c-1.7-2.6-3.9-4.9-5.8-7.5c-3.6-5-7.6-9.7-10.8-15c-0.3-0.4-0.6-0.8-0.9-1.2c-1.3-1.4-1.5-1.4-2.9-0.1c-2.5,2.5-5.1,5-7.6,7.6
		c-1.9,2-4,3.9-5.7,6.1c-0.7,0.9-0.6,1.4,0.3,2.1c3.2,2.3,6.5,4.6,10.1,6.2c5.1,2.2,9.9,4.8,14.7,7.6c2.7,1.5,5.5,3,8.4,4.4
		C123.9,123.1,126,121.6,126,119.4z M151.7,140.2c0,0.5-0.1,1.4,0,2.2c0.1,1.4,1,1.8,2,0.9c0.8-0.6,1.4-1.4,2-2.2
		c1.1-1.5,2.1-3.1,3.1-4.6c2.9-4.3,5.6-8.7,8.8-12.7c0.6-0.7,1.1-1.5,1.4-2.4c0.4-1.1,0-2-1.1-2.4c-0.7-0.2-1.4-0.3-2.1-0.5
		c-3.7-0.7-7.3-2-10.8-3.3c-2.6-0.9-3.3-0.2-3.4,2.5C151.5,125.1,152.4,132.4,151.7,140.2z M240.7,177.9c0-0.5-0.4-0.8-0.8-1.1
		c-2-1.5-4.3-1.8-6.7-1.7c-1.5,0-2.6,0.6-3.6,1.7c-6.3,7.3-11.3,15.3-15.5,23.9c-0.4,0.8-0.6,1.6-1,2.4c-0.2,0.5-0.5,1.1,0,1.6
		c0.6,0.6,1.2,0,1.7-0.3c0.6-0.3,1.1-0.7,1.6-1.1c5.9-4.4,11.2-9.6,16.3-14.9c2.3-2.4,4.4-4.9,6.4-7.5
		C239.8,180,240.4,179.1,240.7,177.9z M87.6,202c-0.3-2-0.9-3.7-1.5-5.5c-1.1-3.1-2.9-5.9-4.5-8.8c-2.6-4.9-6-9.4-9.8-13.5
		c-0.6-0.7-1.3-1.5-2.2-1.6c-2.9-0.4-5.7,0.3-8.2,2c-1.1,0.7-1.1,1.8-0.3,2.7c7.2,8.4,15,16.2,23.6,23.1
		C85.6,201.1,86.3,201.8,87.6,202z M148.6,143.1c0.2-1.2,0.5-2.3,0.5-3.5c0-7.6,0-15.2,0-22.7c0-1.5-0.3-1.7-1.8-1.5
		c-2.3,0.4-4.4,1.2-6.6,1.9c-2.6,0.8-5.2,1.7-7.7,2.8c-1.5,0.6-1.6,1.1-0.7,2.5c0.2,0.2,0.3,0.5,0.5,0.7c2.1,2.8,4.1,5.5,6.2,8.2
		c2.6,3.6,5.2,7.1,8,10.6C147.4,142.5,147.7,143.1,148.6,143.1z M142.9,180.1c0.3,0.1,0.5,0.2,0.7,0.2c4.8,0,9.6,0,14.4,0
		c1.7,0,2-0.4,1.5-2.1c-0.1-0.2-0.2-0.4-0.3-0.6c-1.5-4.6-3.4-9.1-4.7-13.8c-0.6-2.2-1.3-4.4-2-6.6c-0.2-0.6-0.4-1.2-0.8-1.7
		c-0.8-0.9-1.7-0.9-2.2,0.2c-0.3,0.7-0.5,1.5-0.8,2.2c-1.7,5.9-2.9,11.9-5,17.7C143.3,177.1,142.8,178.6,142.9,180.1z M147.3,154
		c-1.5,0.1-2.2,0.9-3,1.6c-4,3.5-7.8,7.3-12,10.8c-1.8,1.5-3.8,2.9-5.2,4.8c-1.4,2-1.4,2,0.7,3c2.7,1.3,5.4,2.7,7.9,4.2
		c2.9,1.7,3,1.8,4.5-1.2c0.1-0.3,0.3-0.5,0.4-0.8C143.8,169.4,145.9,162,147.3,154z M155,155c-0.3,0.4-0.3,0.8-0.2,1.2
		c0.4,1.4,0.8,2.9,1.2,4.3c1.8,5.9,3.7,11.7,6.1,17.4c1.2,2.9,1.8,3,4.4,1.4c1.7-1.1,3.3-2.3,5.2-2.9c0.8-0.3,1.6-0.5,2.4-0.9
		c1.4-0.6,1.4-0.8,0.6-2c-0.9-1.4-2.1-2.7-3.2-4c-4.7-5.1-10.5-8.9-15.2-13.9C156.1,155.2,155.6,154.8,155,155z M228,153.8
		c0-1.7,0-3.5,0-5.4c0-0.4-0.1-0.7-0.5-0.8c-0.3,0-0.5,0.1-0.7,0.4c-0.2,0.2-0.4,0.5-0.5,0.7c-1.6,2.6-3.7,4.7-6,6.6
		c-2.9,2.5-5.9,5.1-8.5,7.9c-1.2,1.3-1.2,1.4,0.4,2.2c2.3,1.2,4.9,2,7.4,2.8c2.5,0.8,4.9,1.4,7.4,2.1c1.6,0.4,2,0.1,2-1.5
		c0-1.5-0.1-3-0.3-4.5C228.1,160.9,227.6,157.5,228,153.8z M209,207c-1-0.1-2,0.3-2.9,0.6c-4,1.2-7.6,3.2-11.3,5.2
		c-4.5,2.4-8.4,5.7-12.3,8.9c-1.4,1.1-2.7,2.3-3.8,3.8c-0.9,1.2-1,2.5-0.2,3.8c0.9,1.5,1.4,1.7,2.9,0.8c2.6-1.6,5.2-3.2,7.7-5.1
		c4.8-3.7,9.7-7.4,14.7-10.8c2.2-1.6,4.2-3.4,6-5.4c0.3-0.4,0.6-0.9,0.4-1.4C209.9,206.8,209.4,207,209,207z M125.5,227.5
		c0.1-0.8-0.3-1.4-0.9-1.9c-1-0.9-2-1.8-3-2.8c-7-6.9-15.3-11.8-24.3-15.4c-1.4-0.6-2.9-0.9-4.3-1.1c-0.9-0.2-1.2,0.3-0.8,1.1
		c0.5,1.2,1.5,2,2.4,2.7c5.8,4.5,11.5,9,17.6,13c1.6,1,3.2,2.1,4.8,3.2c1.8,1.3,3.8,2.3,5.8,3.3c1.6,0.8,1.9,0.7,2.5-1
		C125.3,228.2,125.4,227.8,125.5,227.5z M71.6,149.1c0,0.8,0,1.5,0,2.2c-0.2,5.1,0.4,10.2-0.3,15.2c-0.2,1.6,0.5,2.2,2.2,1.8
		c3.6-0.9,7.2-1.8,10.8-2.8c2.4-0.7,2.5-1.5,0.8-3.4c-3.9-4-8-7.8-11.6-12.1C73.1,149.6,72.7,149,71.6,149.1z M157.9,152.4
		c0.1,1,0.6,1.6,1.1,2.1c0.7,0.7,1.4,1.4,2.1,2.1c5,4.9,10.6,9.2,15.3,14.4c0.2,0.2,0.3,0.3,0.5,0.4c1.2,0.9,2.1,0.8,2.7-0.6
		c0.4-1,0.6-2,0.9-3.1c0.3-1.1-0.1-2-1.3-2.4c-0.5-0.2-0.9-0.5-1.4-0.6c-3.6-1-6.6-3-9.6-5.2c-2.1-1.5-3.9-3.3-5.8-5.1
		C161.2,153.4,159.8,152.5,157.9,152.4z M128.1,122.2c-0.7,0-1,0.3-1.2,1c-0.3,1.4,0,2.5,1.1,3.4c1.5,1.2,3,2.4,4.3,3.9
		c3.4,4,6.9,7.9,9.9,12.2c1.1,1.5,2.1,3.1,3.1,4.6c0.2,0.3,0.6,0.8,1,0.6c0.4-0.2,0.6-0.8,0.6-1.3c-0.1-0.4-0.4-0.8-0.6-1.1
		c-3.8-5.6-7.6-11.1-11.6-16.5c-1.5-2-2.9-4-4.7-5.8C129.4,122.6,128.9,122.1,128.1,122.2z M137.4,158.4c-0.1-0.1-0.2-0.2-0.3-0.3
		c-0.2,0.1-0.4,0.2-0.5,0.3c-3.6,3.5-7.8,6-12.4,7.9c-1,0.4-2,0.8-2.9,1.3c-1.1,0.6-1.2,1.2-0.7,2.3c0.7,1.4,1.7,1.7,2.9,0.8
		c3.7-2.8,7.4-5.6,10.7-9C135.3,160.7,136.4,159.6,137.4,158.4z M151.4,151.4c0.6-0.1,1.7,0.3,1.9-0.8c0.1-1-0.3-1.8-1.2-2.3
		c-0.5-0.3-1.1-0.2-1.7-0.3c-1-0.2-1.7,0-2,1.1c-0.2,0.9,0.3,1.9,1.2,2.2C150.2,151.4,150.8,151.4,151.4,151.4z M156.2,145.1
		c-0.9,0.6-1.2,1.3-1.4,2.1c0,0.4,0.1,0.7,0.5,0.8c0.3,0,0.5-0.2,0.6-0.5C156,146.8,156.4,146.1,156.2,145.1z"/>
	<path class="st1" d="M85.3,100.4c-0.8,0-1.5-0.1-1.9-0.7c-2.6-3.2-6-5.7-7.9-9.6c-0.1-0.1-0.2-0.3-0.2-0.4c-1.5-2.1-3.3-2-4.3,0.4
		c-0.7,1.8-1.2,3.7-1.7,5.5c-0.3,1.2-0.8,2.3-1.3,3.4c-0.8,1.4-1.6,1.6-3,0.9c-0.3-0.1-0.5-0.3-0.7-0.5c-4-3-8.4-5.2-12.6-7.8
		c-1.4-0.9-2.8-1.7-4.2-2.6c-2.4-1.5-2.8-2.8-1.4-5.4c1.4-2.5,3.2-4.8,5.1-6.9c3.6-3.9,7.9-7,12.2-10.2c2.8-2,5.6-4,8.5-5.8
		c3.4-2.1,7.1-2.9,11-3.3c1.2-0.1,1.9,0.3,2.5,1.2c0.1,0.2,0.3,0.3,0.3,0.5c4.2,7.5,9.5,14.3,14.7,21.2c2.3,3.1,2.3,3.6-0.1,6.5
		c-3.4,4.2-7.3,7.9-11.2,11.6C87.9,99.7,86.7,100.3,85.3,100.4z"/>
	<path class="st1" d="M216.7,57.5c2.1,0,4.4,0.8,6.7,1.7c5.7,2.1,10.9,5,15.6,8.8c5.9,4.7,10.6,10.4,14.8,16.6
		c1.5,2.3,1.4,2.8-0.6,4.7c-2.8,2.6-6.1,4.3-9.3,6.1c-3.1,1.7-6.3,3.2-9.4,4.6c-2,0.9-2.7,0.6-3.4-1.5c-0.8-2.2-1.2-4.4-2.2-6.5
		c-0.2-0.4-0.3-0.8-0.5-1.2c-1-2.1-1.7-2.2-3.6-0.9c-0.9,0.6-1.5,1.5-2,2.5c-1.3,2.3-3,4.2-4.9,6c-1.2,1.2-1.8,1.2-3.2,0.4
		c-0.8-0.5-1.6-0.9-2.3-1.5c-4.2-3.4-7.9-7.3-11.3-11.4c-0.5-0.6-0.8-1.2-1.2-1.8c-0.9-1.7-0.8-3.2,0.5-4.7c1.2-1.2,2-2.8,3-4.2
		c3.6-5.4,7.1-10.9,10.7-16.3C214.6,58.1,215.1,57.1,216.7,57.5z"/>
	<path class="st1" d="M150,95.8c-0.3,3.6-0.5,7.1-0.8,10.7c0,0.7-0.2,1.5-0.1,2.2c0.3,2-0.6,3-2.3,3.8c-5,2.6-10.3,4.3-15.9,5.1
		c-1.4,0.2-2.4-0.2-3.4-1.3c-1.9-2.1-3.4-4.5-4.9-6.8c-3.9-6.1-8.3-11.8-12.5-17.7c-0.9-1.3-1.9-2.7-2.7-4.1c-1.1-1.8-1-2.2,1.1-3
		c3.1-1.2,6.2-2.3,9.3-3.2c4.7-1.4,9.3-2.8,13.9-4.3c1.9-0.6,3.6-1.8,5.4-2.7c0.9-0.5,1.8-0.9,2.8-0.8c1.2,0,2.3,0.5,2.9,1.5
		c3.4,5.1,6.5,10.3,6.7,16.7C149.7,93.1,150.1,94.5,150,95.8z"/>
	<path class="st1" d="M151.1,183.3c2.3,0.1,4.6,0,6.8,0.3c2,0.3,3.2,1.4,4.1,3.1c1.3,2.6,2,5.3,2.8,8.1c1.6,5.9,3.9,11.6,5.9,17.4
		c0.9,2.6,1.8,5.3,2.7,7.9c0.1,0.3,0.2,0.7,0.3,1c0.1,0.6-0.2,1-0.8,0.9c-0.6,0-1.1,0-1.7-0.1c-8.1-0.9-16.2-0.9-24.2-0.7
		c-3.1,0.1-6.1,1-9.1,1.5c-2,0.3-3.9,0.7-6,0.6c-1.6-0.1-1.6,0-1.6-1.7c0-1.3,0.3-2.5,0.7-3.8c2.7-9.3,5.4-18.7,8-28
		c0.2-0.6,0.4-1.1,0.5-1.6c0.8-3.2,3.1-4.7,6.3-4.8C147.5,183.2,149.3,183.3,151.1,183.3z"/>
	<path class="st1" d="M151.7,102c0.2-5.9,0.3-10.3,0.4-14.7c0-1,0.3-1.8,0.9-2.6c1.9-2.5,3.7-5.1,5.6-7.6c0.6-0.8,1.3-1.5,2-2.2
		c1.7-1.5,3.5-1.8,5.6-0.8c2.6,1.3,5.3,2.6,8,3.6c4.4,1.7,8.8,2.8,13.4,3.6c1.6,0.3,3.2,0.4,4.8,1.2c0.9,0.5,1.1,1.1,0.9,1.9
		c-0.3,1.3-0.9,2.4-1.5,3.5c-3.1,5.3-6.9,10-10.4,15c-2.6,3.8-5.3,7.7-7.8,11.6c-1.1,1.8-2.4,2.4-4.4,2.1c-4.2-0.5-8.2-1.3-11.9-3.2
		c-1.3-0.6-2.6-1.2-3.9-1.7c-0.9-0.3-1.3-0.9-1.3-1.9C152.1,106.7,151.6,103.6,151.7,102z"/>
	<path class="st1" d="M37.2,116.3c-0.1-4.8,0.2-9.6,0.9-14.3c0.5-3.7,2.1-7,3.9-10.2c0.8-1.4,1.2-1.5,2.5-0.9
		c6.6,2.9,12.9,6.4,19,10.5c0.1,0,0.1,0.1,0.2,0.1c2.9,2,2.9,2.1,2,5.4c-1,3.8-1,7.6-0.7,11.5c0.4,4.1,0.8,8.3,1.1,12.4
		c0.2,1.6,0.3,3.1,0.5,4.7c0.1,1-0.3,1.4-1.4,1.4c-3.3,0-6.5-0.6-9.8-0.9c-4.5-0.5-8.9-1-13.4-1.6c-2.4-0.3-2.8-0.8-3.4-3.1
		c-1.1-4.2-1.6-8.4-1.4-12.7C37.3,117.8,37.2,117,37.2,116.3z"/>
	<path class="st1" d="M137.9,185.1c0.1,1.9-0.5,3.4-1,5c-1.9,5.8-3.8,11.6-5.8,17.3c-1.4,4-2.4,8.1-3.4,12.2c0,0.2-0.1,0.4-0.1,0.6
		c-0.7,2.7-1.4,2.9-3.5,1.1c-1.4-1.2-2.7-2.3-4-3.6c-2.1-2.1-4.5-3.8-7.1-5.1c-5.3-2.6-10.6-5.4-16.1-7.7c-0.8-0.3-1.5-0.8-2.3-1.2
		c-1.2-0.8-1.2-1.4-0.2-2.4c4.2-4.5,8.8-8.6,13.6-12.5c2.4-1.9,4.4-4.3,6.7-6.4c1.8-1.7,3.6-3.3,5.3-5c0.7-0.7,1.5-0.9,2.5-1
		c2.2,0,4.1,0.7,6,1.5c2.6,1,5.1,2.3,7.5,3.8C137.5,182.5,138.3,183.5,137.9,185.1z"/>
	<path class="st1" d="M263.2,121.8c0.1,3.5,0,6.8-0.8,9.9c-0.7,2.6-1.4,3.3-4,3.3c-3.5,0-7,0.4-10.5,0.5c-2.7,0-5.4,0.8-8.1,1.1
		c-1.4,0.2-2.8,0.5-4.2,0.6c-2.6,0.2-3.3-0.7-2.7-3.2c0.3-1.2,0.7-2.5,1.1-3.7c0.5-1.7,0.8-3.3,0.9-5.1c0.2-4.9-0.1-9.7-0.6-14.6
		c-0.1-1.3-0.6-2.5-1-3.7c-0.5-1.5,0-2.7,1.2-3.5c0.9-0.6,1.8-1.2,2.7-1.7c5.5-3.2,11.1-6.3,16.6-9.5c1.6-0.9,2.4-0.7,3.5,0.8
		c0.7,0.9,1.1,1.9,1.4,2.9c1.9,5.5,3.3,11.1,3.7,16.9C262.7,115.9,263.3,119,263.2,121.8z"/>
	<path class="st2" d="M109.8,158.4c-2.4,0.3-4.7-0.4-7-1.3c-11.6-4.5-18.1-13.1-20.4-25.1c-0.5-2.3-0.9-4.6-0.8-7
		c0.1-1.6,0.5-2,2.2-1.6c0.3,0.1,0.7,0.2,1,0.4c5.3,3.3,11.3,4.9,17.2,6.5c8.8,2.4,16.9,6.2,23.9,12.2c1.6,1.3,3.2,2.6,4.9,3.9
		c1.5,1.3,1.4,1.4,0.2,2.8c-1.3,1.5-2.9,2.5-4.6,3.4c-2.9,1.5-5.7,2.9-8.6,4.3C115.2,158.1,112.6,158.6,109.8,158.4z"/>
	<path class="st1" d="M177.9,177.7c1.3-0.1,2.2,0.3,3.1,1.1c0.5,0.5,1,1,1.5,1.5c7.2,6.9,14.3,13.8,21.5,20.7c0.6,0.6,1.3,0.9,2,1.3
		c1.4,1,1.4,1.9-0.2,2.7c-0.8,0.4-1.7,0.8-2.6,1.1c-8.9,3.2-16.5,8.4-23.5,14.8c-2.1,1.9-2.9,1.8-3.9-1c-1.1-3.1-2.1-6.2-2.9-9.4
		c-1-3.9-2.5-7.7-3.9-11.5c-0.6-1.7-1.1-3.4-1.7-5.2c-0.6-1.7-1.1-3.5-1.9-5.1c-0.6-1.1-0.5-2.3-0.8-3.5c-0.2-1.1,0.7-2.5,1.9-3
		c2.8-1.2,5.7-2.4,8.4-3.8C175.9,177.9,176.9,177.6,177.9,177.7z"/>
	<path class="st2" d="M168.3,147.1c1-1.7,2.3-2.9,3.7-3.9c2.8-2,5.5-4.1,8.5-5.9c5.9-3.6,12.2-6.3,18.8-8.3
		c4.9-1.5,9.9-2.8,14.7-4.8c1.2-0.5,2.3-1.1,3.5-1.5c1.5-0.5,1.9-0.2,1.9,1.5c0,3.8-0.9,7.4-2.4,10.8c-1.3,3.1-2.7,6.2-4.2,9.2
		c-0.7,1.4-1.7,2.6-3,3.6c-1,0.7-1.9,1.5-2.8,2.3c-3.5,3.4-7.9,4.8-12.6,5.5c-1.9,0.3-3.8,0.4-5.8,0.4c-4,0-7.5-1.4-11-3.3
		c-2.8-1.5-5.6-3.2-8.3-4.9C169.1,147.7,168.7,147.4,168.3,147.1z"/>
	<path class="st1" d="M181.4,173.6c0.2-1.9,1-3.5,2-5.1c0.4-0.6,1-0.7,1.7-0.7c2-0.1,3.9,0.2,5.7,0.5c2.9,0.6,5.7,0.5,8.5-0.2
		c1.1-0.3,2.2-0.6,3.3-0.8c1.6-0.4,3.2-0.4,4.9,0c6,1.6,11.9,3.5,18,4.9c0.5,0.1,0.9,0.3,1.4,0.5c1.6,0.4,1.7,1.5,1,2.6
		c-0.6,1.1-1.3,2.1-2.2,2.9c-6.3,6-10.5,13.3-14.2,21.1c-1.4,3.1-1.5,3-4.3,1c-0.9-0.7-1.8-1.4-2.6-2.2c-6-6.1-12.1-12-18.4-17.7
		c-1.4-1.2-2.6-2.6-4-3.9C181.7,175.6,181.3,174.7,181.4,173.6z"/>
	<path class="st1" d="M90.5,166.5c2.2-0.1,3.8,0.6,5.4,1.3c5.7,2.6,11.7,3,17.8,1.6c2.6-0.6,4.6,0.4,5.7,2.9
		c0.5,1.2,0.2,2.2-0.8,3.1c-2.9,2.9-5.7,5.8-8.7,8.6c-4.6,4.3-9.3,8.5-13.9,12.8c-1.4,1.3-3.1,2.1-4.4,3.4c-0.7,0.7-1.3,0.2-1.6-0.6
		c-1.6-3.7-3.7-7.1-5.6-10.6c-2.7-5.1-5.7-10-9.7-14.1c-0.5-0.5-0.9-1.1-1.1-1.8c-0.2-0.9-0.1-1.7,1-2.1c5.1-1.8,10.3-3.4,15.6-4.5
		C90.4,166.5,90.7,166.5,90.5,166.5z"/>
	<path class="st1" d="M100.9,54.8c7.3-0.1,14.1,1.8,20.7,4.7c5.1,2.3,9.7,5.2,13.7,9.1c0.3,0.3,0.6,0.6,0.9,0.9
		c1.3,1.5,1.3,1.9-0.5,2.8c-4.9,2.6-10.2,4.1-15.5,5.7c-4.7,1.4-9.4,2.6-14.1,3.9c-1.2,0.3-2.1,0.2-3-0.9
		c-5.1-6.3-9.7-12.9-13.9-19.8c-0.6-1-1.2-2.1-1.7-3.2c-0.5-1.2-0.1-1.9,1.2-2.1c3-0.4,5.9-0.8,8.9-1.1
		C98.7,54.7,99.8,54.8,100.9,54.8z"/>
	<path class="st1" d="M177.6,231.4c0,1.1-0.7,1.8-1.5,2.5c-3.3,2.6-6.8,4.8-10.4,6.8c-2.6,1.4-5.1,2.9-7.6,4.5
		c-1.1,0.8-2.3,1.4-3.5,2.1c-2.3,1.2-4.5,1.2-6.9-0.2c-5.2-3.1-10.1-6.5-15.1-9.9c-1.4-0.9-2.7-1.9-4.1-2.8
		c-1.1-0.8-2.1-1.8-1.8-3.4c0.3-1.7,0.9-3.1,2.7-3.7c2.4-0.8,4.9-1.2,7.3-1.6c2.4-0.4,4.8-0.8,7.2-1c7-0.8,14-0.5,21-0.3
		c2.8,0.1,5.7,0.8,8.4,1.6C175.2,226.4,177.6,229.6,177.6,231.4z"/>
	<path class="st1" d="M259.1,137.4c1.3,0,1.6,0.3,1.3,1.7c-1.2,4.4-2.6,8.8-4.2,13.1c-2,5.5-5.3,10.3-8.1,15.4
		c-1,1.9-1.9,3.8-3.3,5.5c-1.4,1.8-2.2,2.1-4.2,1.5c-2.2-0.7-4.3-1.5-6.5-2.3c-1.9-0.7-2.8-2-3.2-4c-1.4-6.6-1.5-13.3-0.6-20.1
		c0.3-1.8,0.5-3.5,1-5.3c0.6-2,1.9-2.9,3.9-3.2c1.3-0.1,2.6-0.4,3.9-0.3c4.8,0.1,9.4-0.9,14-1.6C255.2,137.6,257.3,138,259.1,137.4z
		"/>
	<path class="st1" d="M205.6,55.1c1.6-0.1,3.2,0.2,4.7,0.5c2,0.5,2.3,1.2,1.3,3c-3.9,7.1-8.7,13.7-13.6,20.1c-1,1.3-2.1,2-3.9,1.7
		c-6.3-1.2-12.6-2.5-18.6-4.9c-2.6-1.1-5.2-2.1-7.6-3.5c-2-1.1-2.1-1.8-0.6-3.5c2.1-2.3,4.6-4.1,7.3-5.6c6.9-3.8,14.4-6,22.2-7.1
		C199.7,55.5,202.7,55.4,205.6,55.1z"/>
	<path class="st1" d="M69.5,157.2c0.2,3.2-0.3,6.4-0.3,9.6c0,1.9-0.9,3.1-2.8,3.6c-1.7,0.5-3.4,1.1-5.2,1.5c-3,0.7-5-0.1-6.5-2.8
		c-4-7.1-8-14.3-11.1-21.8c-1.1-2.6-2.3-5.3-3-8c-0.5-1.9-0.4-1.9,1.5-2c2.7-0.1,5.4,0.4,8.1,0.5c4.8,0.3,9.6,0.6,14.3,1.6
		c0.4,0.1,0.8,0.2,1.2,0.3c1.4,0.2,2.1,1,2.5,2.3c0.4,1.5,0.8,3.1,0.8,4.6C69.2,150.1,69.6,153.6,69.5,157.2z"/>
	<path class="st1" d="M177.5,120.8c-1.9,0-3.1-1.5-2.5-3.2c0.4-1.3,0.9-2.6,1.7-3.7c1.5-2.2,2.9-4.5,4.5-6.5
		c5-6.4,9.7-13.1,13.8-20.2c0.2-0.4,0.4-0.7,0.7-1.1c0.4-0.6,0.9-0.6,1.5-0.3c0.5,0.4,1,0.8,1.5,1.2c2.9,2.9,5.8,5.9,8.8,8.9
		c1.3,1.3,2.6,2.6,4.1,3.8c1.9,1.4,1.9,2.7-0.1,4.1c-4.5,3-9,6.1-13.9,8.6c-5.9,3.1-11.9,6-18.3,8
		C178.6,120.5,178,120.7,177.5,120.8z"/>
	<path class="st1" d="M126,119.4c0,2.2-2.1,3.7-3.9,2.8c-2.8-1.4-5.6-2.9-8.4-4.4c-4.8-2.7-9.7-5.3-14.7-7.6
		c-3.6-1.6-6.9-3.9-10.1-6.2c-0.9-0.6-1-1.2-0.3-2.1c1.7-2.2,3.8-4.1,5.7-6.1c2.5-2.6,5-5.1,7.6-7.6c1.4-1.4,1.6-1.3,2.9,0.1
		c0.3,0.4,0.7,0.7,0.9,1.2c3.2,5.3,7.2,10,10.8,15c1.9,2.5,4,4.9,5.8,7.5c1.3,1.9,2.6,3.8,3.3,6C125.8,118.5,125.9,119.1,126,119.4z
		"/>
	<path class="st1" d="M151.7,140.2c0.7-7.7-0.2-15.1,0-22.5c0.1-2.7,0.8-3.4,3.4-2.5c3.6,1.3,7.1,2.6,10.8,3.3
		c0.7,0.1,1.4,0.2,2.1,0.5c1.1,0.4,1.5,1.3,1.1,2.4c-0.3,0.9-0.9,1.6-1.4,2.4c-3.3,4-6,8.4-8.8,12.7c-1,1.5-2,3.1-3.1,4.6
		c-0.6,0.8-1.3,1.6-2,2.2c-1.1,0.9-1.9,0.5-2-0.9C151.6,141.5,151.7,140.7,151.7,140.2z"/>
	<path class="st1" d="M240.7,177.9c-0.2,1.2-0.9,2-1.5,2.9c-2,2.6-4.1,5.1-6.4,7.5c-5.1,5.3-10.4,10.5-16.3,14.9
		c-0.5,0.4-1,0.8-1.6,1.1c-0.5,0.3-1.1,0.9-1.7,0.3c-0.5-0.5-0.2-1.1,0-1.6c0.3-0.8,0.6-1.6,1-2.4c4.2-8.6,9.2-16.7,15.5-23.9
		c0.9-1.1,2.1-1.6,3.6-1.7c2.4-0.1,4.7,0.2,6.7,1.7C240.3,177.1,240.7,177.4,240.7,177.9z"/>
	<path class="st1" d="M87.6,202c-1.2-0.2-2-1-2.8-1.6c-8.6-6.9-16.4-14.7-23.6-23.1c-0.8-1-0.8-2,0.3-2.7c2.5-1.6,5.2-2.3,8.2-2
		c1,0.1,1.6,0.9,2.2,1.6c3.8,4.1,7.1,8.6,9.8,13.5c1.5,2.9,3.3,5.7,4.5,8.8C86.7,198.3,87.3,200,87.6,202z"/>
	<path class="st1" d="M148.6,143.1c-0.9-0.1-1.2-0.6-1.5-1.1c-2.8-3.4-5.4-7-8-10.6c-2-2.8-4.1-5.5-6.2-8.2
		c-0.2-0.2-0.4-0.5-0.5-0.7c-0.8-1.4-0.7-1.8,0.7-2.5c2.5-1.1,5.1-1.9,7.7-2.8c2.2-0.7,4.3-1.5,6.6-1.9c1.5-0.3,1.8,0,1.8,1.5
		c0,7.6,0,15.2,0,22.7C149.1,140.8,148.8,141.9,148.6,143.1z"/>
	<path class="st1" d="M142.9,180.1c-0.1-1.5,0.4-3,0.9-4.4c2-5.8,3.2-11.9,5-17.7c0.2-0.8,0.4-1.5,0.8-2.2c0.5-1.1,1.4-1.2,2.2-0.2
		c0.5,0.5,0.6,1.1,0.8,1.7c0.7,2.2,1.4,4.3,2,6.6c1.3,4.7,3.1,9.2,4.7,13.8c0.1,0.2,0.2,0.4,0.3,0.6c0.5,1.7,0.2,2.1-1.5,2.1
		c-4.8,0-9.6,0-14.4,0C143.3,180.3,143.1,180.2,142.9,180.1z"/>
	<path class="st1" d="M147.3,154c-1.4,7.9-3.6,15.3-6.6,22.4c-0.1,0.3-0.2,0.5-0.4,0.8c-1.5,3-1.7,2.9-4.5,1.2
		c-2.6-1.5-5.2-3-7.9-4.2c-2.1-1-2.1-1-0.7-3c1.4-2,3.4-3.3,5.2-4.8c4.1-3.4,7.9-7.3,12-10.8C145.2,155,145.9,154.2,147.3,154z"/>
	<path class="st1" d="M155,155c0.7-0.2,1.1,0.2,1.5,0.6c4.7,5,10.5,8.9,15.2,13.9c1.2,1.3,2.3,2.6,3.2,4c0.8,1.2,0.8,1.4-0.6,2
		c-0.8,0.3-1.6,0.6-2.4,0.9c-2,0.6-3.5,1.9-5.2,2.9c-2.6,1.6-3.2,1.5-4.4-1.4c-2.4-5.7-4.3-11.5-6.1-17.4c-0.4-1.4-0.9-2.9-1.2-4.3
		C154.7,155.8,154.7,155.3,155,155z"/>
	<path class="st1" d="M228,153.8c-0.4,3.6,0.2,7,0.6,10.5c0.2,1.5,0.3,3,0.3,4.5c0,1.6-0.3,1.9-2,1.5c-2.5-0.6-5-1.3-7.4-2.1
		c-2.5-0.8-5.1-1.5-7.4-2.8c-1.6-0.9-1.6-0.9-0.4-2.2c2.6-2.8,5.6-5.4,8.5-7.9c2.3-2,4.4-4.1,6-6.6c0.2-0.2,0.3-0.5,0.5-0.7
		c0.2-0.2,0.4-0.4,0.7-0.4c0.4,0.1,0.5,0.5,0.5,0.8C228,150.3,228,152.2,228,153.8z"/>
	<path class="st1" d="M209,207c0.4,0,0.9-0.2,1.2,0.3c0.3,0.5,0,1-0.4,1.4c-1.9,2-3.8,3.9-6,5.4c-5,3.5-9.8,7.2-14.7,10.8
		c-2.5,1.9-5.1,3.5-7.7,5.1c-1.5,0.9-2.1,0.7-2.9-0.8c-0.8-1.3-0.7-2.6,0.2-3.8c1-1.5,2.4-2.7,3.8-3.8c3.9-3.2,7.9-6.5,12.3-8.9
		c3.7-2,7.3-4,11.3-5.2C207,207.3,208,206.9,209,207z"/>
	<path class="st1" d="M125.5,227.5c-0.1,0.3-0.2,0.7-0.3,1c-0.6,1.7-0.8,1.8-2.5,1c-2-1-4-2-5.8-3.3c-1.6-1.1-3.2-2.2-4.8-3.2
		c-6.2-3.9-11.9-8.5-17.6-13c-1-0.8-1.9-1.5-2.4-2.7c-0.4-0.8-0.1-1.3,0.8-1.1c1.5,0.3,2.9,0.6,4.3,1.1c9.1,3.7,17.3,8.5,24.3,15.4
		c1,0.9,2,1.9,3,2.8C125.1,226.1,125.6,226.7,125.5,227.5z"/>
	<path class="st1" d="M71.6,149.1c1.1,0,1.5,0.5,1.9,1c3.6,4.3,7.7,8,11.6,12.1c1.7,1.8,1.6,2.6-0.8,3.4c-3.5,1.1-7.2,2-10.8,2.8
		c-1.7,0.4-2.4-0.2-2.2-1.8c0.7-5.1,0.1-10.2,0.3-15.2C71.7,150.6,71.6,149.9,71.6,149.1z"/>
	<path class="st1" d="M157.9,152.4c1.9,0.1,3.3,1,4.6,2.2c1.9,1.8,3.7,3.6,5.8,5.1c3,2.1,6,4.2,9.6,5.2c0.5,0.1,0.9,0.4,1.4,0.6
		c1.2,0.4,1.5,1.2,1.3,2.4c-0.2,1-0.5,2.1-0.9,3.1c-0.6,1.4-1.5,1.6-2.7,0.6c-0.2-0.1-0.3-0.3-0.5-0.4c-4.7-5.2-10.3-9.5-15.3-14.4
		c-0.7-0.7-1.4-1.4-2.1-2.1C158.4,154,157.9,153.4,157.9,152.4z"/>
	<path class="st1" d="M128.1,122.2c0.8-0.1,1.4,0.4,1.9,0.9c1.8,1.8,3.2,3.8,4.7,5.8c4,5.4,7.8,11,11.6,16.5
		c0.2,0.3,0.6,0.7,0.6,1.1c0.1,0.5-0.1,1.1-0.6,1.3c-0.5,0.2-0.8-0.2-1-0.6c-1.1-1.5-2.1-3.1-3.1-4.6c-3-4.3-6.5-8.2-9.9-12.2
		c-1.2-1.5-2.8-2.7-4.3-3.9c-1.2-0.9-1.5-2-1.1-3.4C127,122.5,127.4,122.2,128.1,122.2z"/>
	<path class="st1" d="M137.4,158.4c-1.1,1.1-2.2,2.3-3.2,3.4c-3.3,3.4-7,6.2-10.7,9c-1.2,0.9-2.3,0.6-2.9-0.8
		c-0.5-1.1-0.4-1.7,0.7-2.3c0.9-0.5,2-0.9,2.9-1.3c4.6-1.9,8.8-4.5,12.4-7.9c0.2-0.1,0.3-0.2,0.5-0.3
		C137.3,158.2,137.4,158.4,137.4,158.4z"/>
	<path class="st1" d="M166,130c-0.2-0.8,0.3-1.2,0.6-1.7c1.5-2,3-4,4.5-6.1c0.3-0.3,0.5-0.7,0.9-0.9c0.7-0.3,1.3-0.3,1.8,0.2
		c0.5,0.4,0.5,1.1,0.2,1.6c-0.2,0.5-0.4,0.9-0.8,1.3C171,126.5,168.9,128.7,166,130L166,130z"/>
	<path class="st1" d="M151.4,151.4c-0.6,0-1.2,0-1.7-0.2c-0.9-0.4-1.5-1.3-1.2-2.2c0.3-1.1,1-1.3,2-1.1c0.6,0.1,1.1,0,1.7,0.3
		c0.9,0.5,1.3,1.4,1.2,2.3C153.1,151.8,152.1,151.3,151.4,151.4z"/>
	<path class="st1" d="M156.2,145.1c0.2,1.1-0.1,1.7-0.3,2.4c-0.1,0.3-0.3,0.5-0.6,0.5c-0.5,0-0.5-0.4-0.5-0.8
		C154.9,146.3,155.3,145.7,156.2,145.1z"/>
	<path class="st1" d="M140.2,155.4c0.2-1,0.9-1.5,1.8-1.9C141.7,154.4,141.1,155.1,140.2,155.4L140.2,155.4z"/>
	<path class="st1" d="M140.1,155.3c-0.1,0.1-0.1,0.1-0.2,0.2c0,0,0-0.1,0-0.1C140,155.4,140.1,155.4,140.1,155.3
		C140.2,155.4,140.1,155.3,140.1,155.3z"/>
	<path class="st1" d="M166,130c0,0-0.1,0.1-0.1,0.1C165.9,130,165.9,130,166,130C166,130,166,130,166,130z"/>
</g>
</svg>
